/* XPM */
static char *_1c3059d5ffa44d9aee83853aae62f80lAKEtJWHvsORZbYn[] = {
/* columns rows colors chars-per-pixel */
"64 64 256 2 ",
"   c #020101",
".  c #0A0102",
"X  c #03020B",
"o  c #0A0806",
"O  c #061700",
"+  c #191806",
"@  c #070517",
"#  c #0E1519",
"$  c #1C1A15",
"%  c #1B0800",
"&  c #291705",
"*  c #231B17",
"=  c #311F00",
"-  c #1B2513",
";  c #32260A",
":  c #212215",
">  c #24231C",
",  c #29241E",
"<  c #272C19",
"1  c #312D08",
"2  c #1E192A",
"3  c #2A182B",
"4  c #1B2623",
"5  c #3B3B32",
"6  c #39383A",
"7  c #28292C",
"8  c #5A4C05",
"9  c #7C6F03",
"0  c #58522E",
"q  c #57512D",
"w  c #4B473E",
"e  c #4C473A",
"r  c #58502B",
"t  c #675731",
"y  c #726C37",
"u  c #353346",
"i  c #49494B",
"p  c #565556",
"a  c #566141",
"s  c #68675A",
"d  c #7D7959",
"f  c #7A724D",
"g  c #656762",
"h  c #646A63",
"j  c #6D6A67",
"k  c #77776A",
"l  c #757670",
"z  c #7B7A76",
"x  c #756F7B",
"c  c #655D6C",
"v  c #8E7A02",
"b  c #987D07",
"n  c #806D0F",
"m  c #83793D",
"M  c #807F7D",
"N  c #918200",
"B  c #A79604",
"V  c #BA9A06",
"C  c #AE9511",
"Z  c #BBA203",
"A  c #AEA001",
"S  c #B1A034",
"D  c #FE8D04",
"F  c #ED9D0B",
"G  c #F49501",
"H  c #FD9602",
"J  c #F59C01",
"K  c #FC9B02",
"L  c #FB960A",
"P  c #F59D0B",
"I  c #FD9C0B",
"U  c #F7940D",
"Y  c #CAAA05",
"T  c #F4A301",
"R  c #FCA303",
"E  c #F5AC00",
"W  c #FCAB03",
"Q  c #F4A30A",
"!  c #FEA30A",
"~  c #FEAB0B",
"^  c #EABB03",
"/  c #FDB401",
"(  c #F5BB02",
")  c #FBBB02",
"_  c #F7B30A",
"`  c #FFBC0A",
"'  c #FAB509",
"]  c #FEA312",
"[  c #FFA41D",
"{  c #FAAA15",
"}  c #FDB411",
"|  c #FDBB17",
" . c #EBB718",
".. c #FBAD23",
"X. c #FBAA27",
"o. c #FDB42C",
"O. c #F9B426",
"+. c #FAB837",
"@. c #ECB32F",
"#. c #C49308",
"$. c #E9CA02",
"%. c #FEC402",
"&. c #F5CC01",
"*. c #FDCD02",
"=. c #FDC50C",
"-. c #F4CB09",
";. c #FECD0B",
":. c #F5C408",
">. c #ECD203",
",. c #EDDC00",
"<. c #F5D300",
"1. c #FCD202",
"2. c #F3DB00",
"3. c #FCDB02",
"4. c #F5D50C",
"5. c #FCD20A",
"6. c #FEDA0B",
"7. c #FEC413",
"8. c #FDCC14",
"9. c #FECD1B",
"0. c #F6CA16",
"q. c #F5D313",
"w. c #FED213",
"e. c #FEDB12",
"r. c #FCD31C",
"t. c #F5DA16",
"y. c #EDC51B",
"u. c #FDE100",
"i. c #FCEB01",
"p. c #FBE104",
"a. c #FFF017",
"s. c #F8C929",
"d. c #FBD42C",
"f. c #F8D829",
"g. c #FBCA3D",
"h. c #F3D535",
"j. c #FBD634",
"k. c #FCD53C",
"l. c #FADC3A",
"z. c #F8DA39",
"x. c #E9CC34",
"c. c #8F8853",
"v. c #878677",
"b. c #858368",
"n. c #B8A66A",
"m. c #A7A87E",
"M. c #B0AD69",
"N. c #AB984E",
"B. c #FABD4A",
"V. c #CDBD75",
"C. c #CEB966",
"Z. c #FAC847",
"A. c #FCD544",
"S. c #F5DC45",
"D. c #FDD946",
"F. c #FCDC4B",
"G. c #F5DB4B",
"H. c #F9CE55",
"J. c #FEC156",
"K. c #F7DB56",
"L. c #FDDC52",
"P. c #FFD45A",
"I. c #FBDB5D",
"U. c #F8D557",
"Y. c #EDD848",
"T. c #FAE146",
"R. c #FAE158",
"E. c #EFE457",
"W. c #EFDD69",
"Q. c #FBDD64",
"!. c #F5DC6B",
"~. c #FCDC6C",
"^. c #F7D864",
"/. c #F5DE74",
"(. c #FCDD73",
"). c #FBDD7C",
"_. c #F9DA78",
"`. c #F2CF6B",
"'. c #ECE363",
"]. c #F4E363",
"[. c #F6E26B",
"{. c #FBE26C",
"}. c #FBE364",
"|. c #F4E474",
" X c #FBE274",
".X c #F5E27B",
"XX c #FAE27D",
"oX c #F9E97D",
"OX c #F7F27A",
"+X c #918C86",
"@X c #949693",
"#X c #8B8C8A",
"$X c #A6A69E",
"%X c #B9B591",
"&X c #A9A9A6",
"*X c #B5B6AE",
"=X c #B9B9AD",
"-X c #B9BAB2",
";X c #BFB6B9",
":X c #B8B4B5",
">X c #B6AFB7",
",X c #C4B78E",
"<X c #C0B7BA",
"1X c #BFC5BB",
"2X c #B6C189",
"3X c #FDDD84",
"4X c #F1DF8B",
"5X c #E6CE89",
"6X c #FCE481",
"7X c #F9E789",
"8X c #FDF48C",
"9X c #FBF386",
"0X c #FEF597",
"qX c #F6EA90",
"wX c #C3C7B8",
"eX c #C7C0AE",
"rX c #EEDBB0",
"tX c #FFFAA4",
"yX c #FAEFB5",
"uX c #FEEEBB",
"iX c #FAF2BD",
"pX c #F8F1BA",
"aX c #F0ECA3",
"sX c #CDBEC5",
"dX c #B5C5C5",
"fX c #C8C8CA",
"gX c #DADADA",
"hX c #D1CDCC",
"jX c #FEF2C2",
"kX c #FFFFCE",
"lX c #F8F8C2",
"zX c #E4E2DD",
"xX c #FEFADD",
"cX c #FEF9D4",
"vX c #F5EBCB",
"bX c #D8D7E1",
"nX c #E1DFE0",
"mX c #EBEAE7",
"MX c #F1EFEC",
"NX c #F4F4ED",
"BX c #FDF6EC",
"VX c #FBFCED",
"CX c #F7FAE7",
"ZX c #F7F6F2",
"AX c #F9F7F3",
"SX c #F7F9F2",
"DX c #FCFBF6",
"FX c #F6F7F9",
"GX c #FFFFFA",
"HX c #FEFDF8",
"JX c #FEFFFD",
"KX c #FEFFFE",
"LX c #FEFDFB",
"PX c #F9F6FB",
"IX c #F1F4EE",
"UX c #E0DFCC",
/* pixels */
"DXDXDXDXDXDXDXDXDXDXDXDXDXDXDXDXGXZXGXHXSXHXZXAXDXDXGXGXDXDXDXDXDXDXDXDXGXGXDXDXAXZXAXAXGXHXAXHXDXDXDXDXDXDXDXDXDXDXDXDXDXDXDXDX",
"DXDXDXDXDXDXDXDXDXDXDXDXDXDXDXDXAXGXZXSXGXGXGXDXDXDXHXHXDXDXDXDXDXDXDXDXHXHXDXDXAXGXGXGXDXNXGXSXDXDXDXDXDXDXDXDXDXDXDXDXDXDXDXDX",
"DXDXDXDXDXDXDXDXDXDXDXDXDXDXDXDXHXHXSXHXHXAXAXZXAXAXAXAXAXAXAXAXAXAXAXAXAXAXAXAXZXAXZXDXGXAXGXHXDXDXDXDXDXDXDXDXDXDXDXDXDXDXDXDX",
"DXDXDXDXDXDXDXDXDXDXDXDXDXDXDXDXHXNXGXDXDXGXGXGXJXJXJXJXJXJXJXJXJXJXJXJXJXJXJXJXGXDXGXAXGXGXSXHXDXDXDXDXDXDXDXDXDXDXDXDXDXDXDXDX",
"DXDXDXDXDXDXDXDXDXDXDXDXDXDXDXDXDXHXAXZXAXAXAX$Xl l l l l l l l l l l l l l l l $XAXAXAXAXAXHXDXDXDXDXDXDXDXDXDXDXDXDXDXDXDXDXDX",
"DXDXDXDXDXDXDXDXDXDXDXDXDXDXDXDXHXHXAXJXJXGXGX5                                 5 GXGXJXJXAXHXHXDXDXDXDXDXDXDXDXDXDXDXDXDXDXDXDX",
"DXDXDXDXDXDXDXDXDXDXDXDXDXDXDXDXAXAXAX*X:X*XwXs w w w w w w w w w w w w w w w w s -X-X*X*XDXAXDXDXDXDXDXDXDXDXDXDXDXDXDXDXDXDXDX",
"DXDXDXDXDXDXDXDXDXDXDXDXDXDXDXDXDXJXnX        $XkXkXkXkXkXkXkXkXkXkXkXkXkXkXkXkX$X        zXGXDXDXDXDXDXDXDXDXDXDXDXDXDXDXDXDXDX",
"DXDXDXDXDXDXDXDXSXHXHXDXGXFXGXDXCXzXbX* O 2 # m.iXiXuXuXuXuXuXuXyXyXyXyXyXyXyXiXm.o + O * hXvXIXDXHXAXHXVXDXGXDXDXDXDXDXDXDXDXDX",
"DXDXDXDXDXDXDXDXGXAXHXSXZXGXNXHXsX  4 rXaXvXrXT.1.<.<.1.1.5.5.5.5.5.5.5.5.5.5.6.w.^ ( &. .& @ wXGXNXJXAXDXJXPXDXDXDXDXDXDXDXDXDX",
"DXDXDXDXDXDXDXDXLXAXLXJXJXFXJXLXfXX # vXxXcXcXY.*.*.*.*.*.;.*.*.*.*.*.*.*.*.*.*.&.e.*.3.>.o X fXHXGXMXGXDXJXHXDXDXDXDXDXDXDXDXDX",
"DXDXDXDXDXDXDXDXDXDXNXHX#X5 i 6 a ,XV.f.l.r.d.w.*.*.*.*.*.*.*.*.<.<.<.<.<.&.&.<.1.;.;.-.<.Y Z t 5 i 5 #XLXNXGXLXDXDXDXDXDXDXDXDX",
"DXDXDXDXDXDXDXDXVXGXJXJXg       7 DXjX*.1.&.<.*.1.1.1.1.1.1.1.1.1.1.1.1.1.1.1.1.1.1.*.&.*.1.i.=   X   c JXVXVXFXDXDXDXDXDXDXDXDX",
"DXDXDXDXDXDXDXDXCXHX@Xk v.b.b.k N.R.U.5.1.| ( / ( ( ( / ) ) ) ) / / / / / / / / / 1.1.1.%.*.<.b 9 n 9 m x @XJXLXDXDXDXDXDXDXDXDX",
"DXDXDXDXDXDXDXDXJXLXu X +XCXxXxXtX<.5.&.&.I H P K K H H H H H H H H H H H K H H ~ &.<.2.%.5.*.1.u.3.i.N . u LXLXDXDXDXDXDXDXDXDX",
"DXDXDXDXDXDXDXDXwX=Xs 1 M.tX7XqXW.8.*.%.%.] W E W W W W ~ R R R ..........O.O...' %.%.<.w.&.5.&.*.=.3.C ; y %X<XDXDXDXDXDXDXDXDX",
"SXHXAXLXJXLXGXNX* X 2XVXP.-.&.;.7.2.&.H K %.1.1.1.*.5.*.5.=.T ! ~.[.|.|. X XXX6XH.D T *.*.<.<.1.;.0.*.1.u.#.. # AXGXNXGXAXHXDXLX",
"GXGXDXGXSXAXHXNX3 X ,XcXD.1.*.*.*.%.` E E =.1.*.*.*.1.&.*.%.T I (.(.!.^.[.XX[.R.g.H W ;.*.*.=.;.1.1.*.&.3.V   < MXDXAXAXGXGXDXVX",
"AXZXAXHXGXDXGXNX-   ,XVXE.&.5.1.&.I ! %.%.%.<.<.*.1.3.<.1.%.R I E.[.Q.].[.~.k.1.*.*.) R R *.1.<.*.1.*.-.u.C . 4 MXHXHXAXGXAXVXVX",
"DXGXGXSXGXGXAXJX# @ %XxXI.*.8.&.%.K R *.1.*.*.<.*.*.*.*.*.) R I '.XX3X).XX Xk.5.;.p.&.L I %.1.<.*.1.*.&.1.C % $ DXNXHXDXDXLXJXJX",
"DXHXGXNXDXgXi i m.%XY.z.;.1.` [ ~ ) %.*.1.5.*.<.1.( E E ~ R J ! ..X.[ { 9.r.5.*.7.*.*.H.H.~ R &.5.0.;.1.3.^ B B i i bXDXDXVXGXLX",
"DXNXGXJXJXgXo   UXcXA.*.*.3.) D ! 1.1.*.*.*.;.<.;./ J H I H K R K K G T ( 5.1.<.<.*.8.oX|.] H :.1.*.1.&.5.*.3.$.  o mXJXHXVXVXSX",
"HXZXJXgXM v.k b.!.].8.1.( ( %./ ( *.<.5.*.*.*.%./ W I I I I I K R K P ! { } %.*.q.l.j.Q.^.( E } / =.*.&.*.*.1.^ m f v.z gXDXVXHX",
"SXZXJX&X  + cXkX;.3.*.<.{ L / 3.<.;.*.1.*.5.5.T J K K K J J ! H H I I K K P _ 1.9.6X[.).).e.*.R G ` ;.<.1.*.<.9.OXqX+   >XJXAXDX",
"DXZXJX-X  , pXuXw.<.*.1./ L / 1.<.*.=.<.1.*.*.~ H R K { o.[ H T { ~ K K Q F ` w.f.).!.G.U.w.*.O.@.` *.1.&.&.*.;.XX).:   <XJXSXAX",
"DXZXJX=X  , pXiXw.<.*.1./ L / 1.5.*.*.&.*.*.<.{ F J H +.{.H.{ J <.*.~ H K H +..X].3XL.2.<.*.5.P.Q.d.*.*.&.1.1.5.XX).:   <XJXSXAX",
"DXAXJX*X  , iXjXw.<.*.1./ L / 1.*.<.1.*.*.w.t.W ! ! H o.oXU.P I *.%.~ K ! [ +.[.[.I.D.5.%.%.<.L.XXk.*.<.1.1.1.;.XXXX:   <XJXSXDX",
"HXAXJX*X  , iXjXw.*.*.1./ L / 1.;.<.;.*.;.D.}.{ H I H O.oXH.K R 1.1.*.-.S.`.Q.{.K.q.w.*.*.1.<.G..Xh.*.1.5.*.*.8.XX6X:   ;XJXSXHX",
"HXAXJX*X  , iXjXw.<.*.1./ L / 1.;.<.<.<.5.L.XXO.G ] K O.XXH.R I %.1.1.*.T.).).|.P.<.<.&.*.5.*.^.XXj.*.*.*.*.*.r.XXXX:   ;XJXSXHX",
"HXAXJX*X  , iXjXw.<.*.1./ L / 1.;.1.5.A.P.Q.6X@.H ] K Q +.X.K I ! W R R g. XL.s.w.1.1.<.*.*.<.F. Xd.*.*.*.*.5.q.6XXX:   ;XJXSXDX",
"DXZXJX*X  , iXjXw.<.*.1./ L / 1.*.1.r.~.6XQ.[.O.G K K J I H K R J T H K Z.XXl.*.*.*.1.1.*.*.;.K. Xd.*.1.5.1.1.q.XXXX:   ;XJXSXDX",
"DXZXJX*X  , iXjXw.<.*.1./ L / 1.9.d.d.].|.^.XXZ.s.] I P K R Q I H Q ] H o.J.s.<.<.1.*.;.8.*.1.G.|.j.5.*.&.*.1.w.XXXX:   ;XJXSXDX",
"DXSXJX*X  , jXjXw.*.*.5.} L W 1.w.3X|.].XX~.]. X6XB.H K ! K K I L J H K K K _ 5.*.<.*.*.5.*.*.L.XXf.*.*.1.*.;.5.6X6X:   :XJXSXGX",
"SXSXJX-X  > iXjXw.*.*.1./ L } f.j..X X}.(._./.K.T.y.T R ! R R Q {  .K K I H / 1.*.<.*.*.5.*.*.L.XXf.*.*.1.*.;.5.XXXX$   ;XJXSXHX",
"DXSXJX-X  > iXjXr.1.*.1./ L o.Q.I.|.[.Q.}.~.[.f.9.<.1.;.<.%.K I ~.~.X.K K H / 5.*.<.*.*.5.*.*.K.XXd.*.*.1.*.;.5.XXXX$   ;XJXSXDX",
"DXSXJX*X  > jXjXq.1.*.1./ H +.6X~.'././.(.~.Q.s.%.&.*.%.t.;.K ! ^.Q...K ! H / <.*.<.*.*.5.*.*.K.XXd.*.*.1.*.;.5.6X6X$   ;XJXSXHX",
"DXSXJX*X  , iXjXw.1.*.5./ H o..X(.'.XX[.!.f.e./ E E R @.[.P.H Q >.t.E K I H ' 1.*.<.*.*.5.*.*.K.XXd.*.*.1.*.*.5.XX6X:   ;XJXSXGX",
"DXSXJX-X  , pXuXw.1.*.;./ H O.|.Q.W.).R.^.q.*.] H L I @.oXP.H K *.1.W H K H } 3.*.<.*.*.5.*.*.K.XXd.*.*.1.*.*.5..XXX:   ;XJXSXHX",
"SXSXJX-X  : iXjXr.1.<.5./ H O.|.~.!._.f.d.<.1.W P I K ] o.{ J Q ! { I K R H _ 1.*.<.*.*.1.*.*.K.XXd.*.*.<.*.*.5.6X6X-   ;XJXSXDX",
"SXSXJX*X  : lXkXs.1.<.1./ H o.6X|.|.(.*.*.*.8.W H K K U K J I K K Q K K I I / 1.*.<.*.*.5.*.*.K.XXd.*.*.1.*.*.5.8X6X$   :XJXSXDX",
"SXHXGXhXj z v.v.:.$.8.<.' W | B.g.S.h.*.*.*.*.x.+.W H I P K H K L I I K E / %.*.q.%.5.1.;.j.f.k.k.t.5.*.5.*.z.x.c.d d j hXJXJXLX",
"HXAXZXJXDXzX    ^ u.*.<.6.3.%.G R *.1.2.4.<.1.D.7XZ.P I K I I I I K G R ` ;.5.<.1.1.*.&.*.(.XX5.;.1.%.5.;.d.0X5X  o zXGXJXNXVXBX",
"HXGXNXAXJXgX5 5 A Z =.&.:.<.( ~ _ =.%.<.;.f.r.k.(.s.T E E ~ P J W W T E ` ;.*.*.*.*.5.4.r.F.I.w.5.<.1.1.y.h.C.n.6 6 gXLXAXNXHXDX",
"NXDXGXGXLXAXGXDX2 . V u.7.w.*.1.) I Q *.5.R./.(.6Xk.*.1.1.) K K &.<.1.<.<.<.<.1.<.*.;.{.(.8.1.4.5.<.*.j.0Xn.  $ DXGXAXAXAXJXLXZX",
"GXSXDXGXAXAXGXMX2 . V ,.*.*.*.5.%.J T *.:.L..X(.'.h.4.1.1.` P Q 1.1.*.*.*.*.*.*.q.1.0.~.{.;.*.<.;.<.*.h.0XM.  > NXHXDXDXGXDXLXJX",
"SXHXAXZXGXGXGXAX4 X #.3.*.*.1.;.w.-.*.W P L.[.d.6.*.*.*.*.7.P T *.*.*.*.1.1.<.<.r.Q.F.r.4.1.*.*.1.<.5.f.qXn.  3 SXSXAXHXSXSXHXHX",
"HXGXGXDXGXZXGXNXO   Y i.*.;.1.*.%.2.*.H L I. Xf.*.*.;.>.<.%.K K %.;.;.*.*.*.*.5.e.XX~.*.&.*.1.5.*.&.;.z.tXM.  $ MXJXZXHXDXHXDXVX",
"GXNXDXHXSXHXDXDX>X>Xt 1 V 5.&.*.*.*.*.) :.| X.8.<.d.L.K.S.L.B.Z.S.F.S.S.F.F.D.D.A.f.d.*.1.;.7.f.U.I.L.S e s &X*XSXHXGXAXGXGXFXGX",
"DXDXDXDXDXDXDXDXJXDXu . v a.3.6.3.&.1.1.1.P H ) 4.z. X7X6X X X6X).).XXXX).XX3X3XF.*.%.3.*.3.*.OX8X8XtXc.. 6 PXJXDXDXDXDXDXDXDXDX",
"DXDXDXDXDXDXDXDXNXVX#Xj y v v v B q.1.&.*.7.E 7.*.r.k.A.k.j.k.A.z.l.l.l.l.l.z.l.h.*.5.<.%.j.k.N.c.c.c.d j @XJXNXDXDXDXDXDXDXDXDX",
"DXDXDXDXDXDXDXDXLXDXKXPXj . . . = p.1.5.1.*.1.=.*.*.5.1.1.1.5.;.*.*.*.*.*.*.*.*.*.5.&.3.w.oXtX:       s AXJXSXDXDXDXDXDXDXDXDXDX",
"DXDXDXDXDXDXDXDXLXCXCXJX#X> 6 7 r Y Y &.*.*.<.3.*.*.*.<.<.*.*.*.5.*.*.*.1.5.*.*.3.0.r.w.=.C.V.0 7 6 7 #XJXDXAXHXDXDXDXDXDXDXDXDX",
"DXDXDXDXDXDXDXDXDXDXHXSXHXDXDXJXdX  % >.e.*.1.&.;.*.1.5.*.*.*.1.1.*.*.*.*.*.*.1.s.8X7X6X_.$   fXJXLXGXSXAXGXDXDXDXDXDXDXDXDXDXDX",
"DXDXDXDXDXDXDXDXDXJXJXLXJXVXHXPXsXX & $.-.*.%.;.<.*.*.*.*.*.*.*.*.*.*.*.*.*.*.5.f..X3X7X5X*   1XHXSXVXHXGXDXJXLXDXDXDXDXDXDXDXDX",
"DXDXDXDXDXDXDXDXVXMXHXVXDXVXVXGXPXUXwX; + 1 & C <.*.*.*.*.&.*.*.~.!.(.(.(./.(. XN.+ , - , fXmXZXDXHXGXZXHXGXZXJXDXDXDXDXDXDXDXDX",
"DXDXDXDXDXDXDXDXSXJXFXVXJXFXVXGXAXJXmX  o   . V i.3.1.3.u.u.6.e.9X9X8X8X8X9X8X0Xn.  .     mXDXLXGXAXFXJXAXSXGXSXDXDXDXDXDXDXDXDX",
"DXDXDXDXDXDXDXDXDXDXDXDXDXDXDXDXDXAXAX&X&X&X&Xs 8 8 8 8 8 8 8 8 0 0 0 q 0 0 q r j &X&X$X&XZXAXSXDXDXDXDXDXDXDXDXDXDXDXDXDXDXDXDX",
"DXDXDXDXDXDXDXDXDXDXDXDXDXDXDXDXSXHXAXLXJXGXSX5                 . . . . . . .   5 AXGXGXGXAXGXSXDXDXDXDXDXDXDXDXDXDXDXDXDXDXDXDX",
"DXDXDXDXDXDXDXDXDXDXDXDXDXDXDXDXHXHXAXGXAXNXGX@Xs h h h h h h h g g g g g h g s +XGXAXZXGXAXGXHXDXDXDXDXDXDXDXDXDXDXDXDXDXDXDXDX",
"DXDXDXDXDXDXDXDXDXDXDXDXDXDXDXDXSXZXHXSXHXAXGXJXJXJXJXJXJXJXJXJXGXGXGXGXGXGXGXGXGXHXAXAXAXGXAXAXDXDXDXDXDXDXDXDXDXDXDXDXDXDXDXDX",
"DXDXDXDXDXDXDXDXDXDXDXDXDXDXDXDXGXGXSXDXGXGXAXMXBXBXBXBXBXBXBXBXFXFXFXFXFXFXAXAXZXAXAXGXGXAXGXGXDXDXDXDXDXDXDXDXDXDXDXDXDXDXDXDX",
"DXDXDXDXDXDXDXDXDXDXDXDXDXDXDXDXDXHXSXSXSXDXGXJXGXGXGXGXGXGXGXGXHXHXHXHXHXHXHXHXGXGXAXAXDXZXDXGXDXDXDXDXDXDXDXDXDXDXDXDXDXDXDXDX",
"DXDXDXDXDXDXDXDXDXDXDXDXDXDXDXDXHXSXGXDXGXGXNXHXHXHXDXDXDXHXHXDXGXDXDXGXHXDXDXGXAXMXGXGXHXGXAXGXDXDXDXDXDXDXDXDXDXDXDXDXDXDXDXDX",
"DXDXDXDXDXDXDXDXDXDXDXDXDXDXDXDXHXSXDXAXLXDXGXVXHXDXDXDXDXDXDXDXDXDXDXDXDXDXDXDXLXGXGXNXSXHXGXGXDXDXDXDXDXDXDXDXDXDXDXDXDXDXDXDX"
};
