/* XPM */
static char *e503cb835f404ef2eacff947cde0497erMhNhHKxr42UlR6Z[] = {
/* columns rows colors chars-per-pixel */
"64 64 250 2 ",
"   c #282A15",
".  c #7A682A",
"X  c #221540",
"o  c #7A6343",
"O  c #DB7705",
"+  c #DD7416",
"@  c #DB6815",
"#  c #E66A08",
"$  c #EC7404",
"%  c #E77D03",
"&  c #EE7A04",
"*  c #ED740B",
"=  c #EC7A0B",
"-  c #E3770B",
";  c #F17E07",
":  c #F47909",
">  c #E36D1B",
",  c #E96C1B",
"<  c #EB6D14",
"1  c #E67514",
"2  c #EC7414",
"3  c #E47D14",
"4  c #EC7A15",
"5  c #E4721B",
"6  c #EB741B",
"7  c #E47B1B",
"8  c #EA7B1B",
"9  c #F17B14",
"0  c #F1721C",
"q  c #F37D1B",
"w  c #F57616",
"e  c #F26C0D",
"r  c #ED5F21",
"t  c #DF7722",
"y  c #E86C26",
"u  c #F66B24",
"i  c #ED7422",
"p  c #E37D22",
"a  c #EC7A25",
"s  c #E77A27",
"d  c #F37525",
"f  c #E87938",
"g  c #D97143",
"h  c #D0784E",
"j  c #DD8509",
"k  c #DC871A",
"l  c #EE8B05",
"z  c #EB850D",
"x  c #E48B0D",
"c  c #EB8C0C",
"v  c #E98707",
"b  c #F28203",
"n  c #F3820B",
"m  c #F38A0D",
"M  c #F78907",
"N  c #E79304",
"B  c #EB9204",
"V  c #EC920B",
"C  c #E6970B",
"Z  c #F39404",
"A  c #F2940C",
"S  c #F39B0D",
"D  c #FC9C0C",
"F  c #FA9509",
"G  c #EC8513",
"H  c #E48B14",
"J  c #EB8C14",
"K  c #EC841B",
"L  c #EA8A1A",
"P  c #E48618",
"I  c #F48413",
"U  c #F2841A",
"Y  c #F58915",
"T  c #ED9312",
"R  c #EB9818",
"E  c #F49513",
"W  c #FB9413",
"Q  c #F49C12",
"!  c #FB9C13",
"~  c #F4951B",
"^  c #FD9C1B",
"/  c #F7991A",
"(  c #D3A511",
")  c #ECA909",
"_  c #F3A50C",
"`  c #FDA40F",
"'  c #F4AC0D",
"]  c #FDAE0D",
"[  c #F7A702",
"{  c #ECB608",
"}  c #FBBC06",
"|  c #F4B30C",
" . c #FDB40C",
".. c #F3BC0B",
"X. c #FEBC0C",
"o. c #F8B405",
"O. c #EFA412",
"+. c #EEA816",
"@. c #F4A413",
"#. c #FCA215",
"$. c #F4AA14",
"%. c #FDAC13",
"&. c #F2A51A",
"*. c #FBA319",
"=. c #F4AE1A",
"-. c #FEAB1B",
";. c #EDB912",
":. c #EEB313",
">. c #F5B214",
",. c #FDB313",
"<. c #F5BB12",
"1. c #FDBC14",
"2. c #FDB31B",
"3. c #F5BA1A",
"4. c #FEBC1B",
"5. c #F5B31E",
"6. c #DC832A",
"7. c #EC8324",
"8. c #E78923",
"9. c #F38221",
"0. c #F48E22",
"q. c #F59C21",
"w. c #F99A25",
"e. c #E89829",
"r. c #DEA228",
"t. c #FEAC22",
"y. c #F8A423",
"u. c #FEB423",
"i. c #FBBB25",
"p. c #ECC60B",
"a. c #F5C305",
"s. c #FBC106",
"d. c #F5C40B",
"f. c #FEC30C",
"g. c #F5CD09",
"h. c #FDCC0C",
"j. c #FDCA05",
"k. c #FCD30B",
"l. c #F8D708",
"z. c #F4C513",
"x. c #FDC213",
"c. c #F6C914",
"v. c #FDCD13",
"b. c #FCC31C",
"n. c #FCCC1B",
"m. c #F4C81D",
"M. c #FED513",
"N. c #FCDC14",
"B. c #FDDD1C",
"V. c #F6D51A",
"C. c #E9D417",
"Z. c #FEE306",
"A. c #FEE50D",
"S. c #FEEC0B",
"D. c #F5E90C",
"F. c #FDE414",
"G. c #FEEA14",
"H. c #FFE51A",
"J. c #FEEB1A",
"K. c #F4E515",
"L. c #FFF11B",
"P. c #FAF11A",
"I. c #FAF304",
"U. c #CBCA22",
"Y. c #FECD20",
"T. c #F5C927",
"R. c #FDD623",
"E. c #EED12C",
"W. c #F9E523",
"Q. c #FDF121",
"!. c #B69276",
"~. c #BEA27D",
"^. c #BB9254",
"/. c #EB9F5C",
"(. c #EEA458",
"). c #D1926A",
"_. c #C39979",
"`. c #D0976C",
"'. c #E79E68",
"]. c #E69B76",
"[. c #FE9B72",
"{. c #C9AA7E",
"}. c #E7AA69",
"|. c #F9A364",
" X c #EBA275",
".X c #ECA279",
"XX c #E7A576",
"oX c #F5A676",
"OX c #E8B179",
"+X c #BA9992",
"@X c #ABAF9D",
"#X c #B4B398",
"$X c #B8A790",
"%X c #B99CA0",
"&X c #AEABA8",
"*X c #B2AAA7",
"=X c #B9B6A5",
"-X c #B1B9B3",
";X c #CD9981",
":X c #F49D85",
">X c #C2A488",
",X c #C3B49F",
"<X c #E8A784",
"1X c #EABB9F",
"2X c #F4BB9E",
"3X c #C1ACAB",
"4X c #F0BCA4",
"5X c #EDBEAC",
"6X c #E9C19D",
"7X c #D1C4B2",
"8X c #E9C5AE",
"9X c #F2C0A7",
"0X c #F6C4AB",
"qX c #EAC8B1",
"wX c #F3C2B4",
"eX c #BEBFC4",
"rX c #93C4C0",
"tX c #A9D3D5",
"yX c #9CDDED",
"uX c #96DCF6",
"iX c #8FDEFD",
"pX c #8CE2F8",
"aX c #98E5F7",
"sX c #96E4EA",
"dX c #AAE1E6",
"fX c #A4E4FC",
"gX c #B9F4FB",
"hX c #B1EAEE",
"jX c #D3D6DF",
"kX c #F4DDCD",
"lX c #D2E6D7",
"zX c #F4E6D6",
"xX c #C7DDEB",
"cX c #D5E4E4",
"vX c #C9F6FB",
"bX c #D4F5FF",
"nX c #CCE8F4",
"mX c #FDE4E7",
"MX c #FDF4ED",
"NX c #FEFAED",
"BX c #F8F5E7",
"VX c #FFECF7",
"CX c #EBFBF7",
"ZX c #F7FEF5",
"AX c #FEFCF5",
"SX c #FEF6FE",
"DX c #F6FDFC",
"FX c #FEFEFE",
"GX c #F6F6F7",
"HX c #E8EBF3",
/* pixels */
"FXFXFXFXFXFXFXFXFXFXFXFXFXFXFXFXFXFXFXFXFXFXFXFXDXDXFXFXFXAXFXFXFXFXFXAXDXFXFXFXFXFXFXFXFXFXFXFXFXFXFXFXFXFXFXFXFXFXFXFXFXFXFXFX",
"FXFXFXFXFXFXFXFXFXFXFXFXFXFXFXFXFXFXFXFXFXFXFXFXFXFXDXFXFXFXDXDXDXDXDXFXFXAXGXDXFXFXFXFXFXFXFXFXFXFXFXFXFXFXFXFXFXFXFXFXFXFXFXFX",
"FXFXFXFXFXFXFXFXFXFXFXFXFXFXFXFXFXFXFXFXFXFXFXFXFXAXAXAXAXAXFXNXAXAXDXGXFXFXFXDXFXFXFXFXFXFXFXFXFXFXFXFXFXFXFXFXFXFXFXFXFXFXFXFX",
"FXFXFXFXFXFXFXFXFXFXFXFXFXFXFXFXFXFXFXFXFXFXFXFXSXFXDXFXFXFXDXAXFXAXFXFXFXGXFXFXFXFXFXFXFXFXFXFXFXFXFXFXFXFXFXFXFXFXFXFXFXFXFXFX",
"FXFXFXFXFXFXFXFXFXFXFXFXFXFXFXFXFXFXFXFXFXFXFXFXDXFXFXFXFXCXDXSXFXFXGXFXDXDXAXAXFXFXFXFXFXFXFXFXFXFXFXFXFXFXFXFXFXFXFXFXFXFXFXFX",
"FXFXFXFXFXFXFXFXFXFXFXFXFXFXFXFXFXFXFXFXFXFXFXFXFXVXFXAXAXAXDXFXFXDXAXNXDXFXAXFXFXFXFXFXFXFXFXFXFXFXFXFXFXFXFXFXFXFXFXFXFXFXFXFX",
"FXFXFXFXFXFXFXFXFXFXFXFXFXFXFXFXFXFXFXFXFXFXFXFXDXAXFXNXXX[.].OX X].oXoXNXZXNXDXFXFXFXFXFXFXFXFXFXFXFXFXFXFXFXFXFXFXFXFXFXFXFXFX",
"FXFXFXFXFXFXFXFXFXFXFXFXFXFXFXFXFXFXFXFXFXFXFXFXMX].:X'.$.B T Z M R M : '.<X<XMXFXFXFXFXFXFXFXFXFXFXFXFXFXFXFXFXFXFXFXFXFXFXFXFX",
"FXFXFXFXFXFXFXFXFXFXFXFXFXFXFXFXFXZXAXFXAXFXGX X}.[ ) { G.Y.k.c.v.v.v.<.b 9 ;  X:XMXFXFXDXFXFXFXFXFXFXFXFXFXFXFXFXFXFXFXFXFXFXFX",
"FXFXFXFXFXFXFXFXFXFXFXFXFXFXFXFXFXAXDXAXGXVX(.) $.R.Q.F.b G E f.i.Z F b i.4.i.b = (.BXFXAXFXAXFXFXFXFXFXFXFXFXFXFXFXFXFXFXFXFXFX",
"FXFXFXFXFXFXFXFXFXFXFXFXFXFXFXFXDXFXGXDXSX'.o.B.D.4.l c {._., b.c.< !._.m l ,.} ,.j '.BXFXFXAXFXFXFXFXFXFXFXFXFXFXFXFXFXFXFXFXFX",
"FXFXFXFXFXFXFXFXFXFXFXFXFXFXFXFXFXCXFXBX'.o.Z.i.Z R ;X%XuXcXa X.a.y cXfX$X!.~ W 4.4.I /.BXFXDXFXFXFXFXFXFXFXFXFXFXFXFXFXFXFXFXFX",
"FXFXFXFXFXFXFXFXFXFXFXFXFXFXFXFXFXNXMX|.[ N.d.: , $XpXhXbXlXs a.1.d lXyXyXgX=X@ b X.,.n /.MXDXAXFXFXFXFXFXFXFXFXFXFXFXFXFXFXFXFX",
"FXFXFXFXFXFXFXFXFXFXFXFXFXFXFXFXDXmX}._ H.X.e._._.=XgXdXnXrX6.1.1.6.rXhXdXvX=X<X>XH  .4.9 XXmXZXFXFXFXFXFXFXFXFXFXFXFXFXFXFXFXFX",
"FXFXFXFXFXFXFXFXFXFXFXFXFXFXFXFXDXwXb P.) q.$XiXtX|.wXuXpXxXp X.} 7 jXvXaX*X|.lXfX$XR =.t.# qXFXFXFXFXFXFXFXFXFXFXFXFXFXFXFXFXFX",
"FXFXFXFXFXFXFXFXFXFXFXFXFXFXFXFXVX}.) J.[ g fXdXfXcX^.~.,XlX6.1.4.7 HX#X_.).cXaXxXfXh D  .b OXmXFXFXFXFXFXFXFXFXFXFXFXFXFXFXFXFX",
"FXFXFXFXFXFXFXFXDXDXAXFXFXAXDXDX1Xc J.} e.#XnXbXsXaXnX).`.+Xa x.1.i $X}.`.uXyXgXbXdX#Xr.o.-.e 6XDXDXAXFXFXAXDXFXFXFXFXFXFXFXFXFX",
"FXFXFXFXFXFXFXFXFXDXFXFXAXAXFXAX8Xl L.F g 7XwX@X*X-X0X-X@Xu # a.x.# # 8XeX#X&X5X3X&X=Xh M ,.* qXAXFXAXFXFXAXDXFXFXFXFXFXFXFXFXFX",
"FXFXFXFXFXFXFXFXFXDXFXFXFXAXFXzXoX) N...9 4 % ; n : % - I 9 0.b.1.0.7 K ; $ I = m : 9 7.%. .z oXzXFXAXFXFXFXFXFXFXFXFXFXFXFXFXFX",
"FXFXFXFXFXFXFXFXAXFXFXDXFXAXFX8XC F.X.d.v.b.Y.n.n.h.f.h.k.h.v.x.b.h.h.h.h.v.h.v.f.R.f.f.f.b.1.e qXFXAXFXDXFXFXFXFXFXFXFXFXFXFXFX",
"FXFXFXFXFXFXFXFXAXFXAXDXAXFXFX1XN F.4.] S ~ 0.S Z W ~ ! A T W R S / w.T A W E R F T #.#.|  .` - 1XAXFXFXDXFXFXAXFXFXFXFXFXFXFXFX",
"FXFXFXFXFXFXFXFXAXFXAXFXAXDXFX4XB W.b.C > Y J z U L 8.c H L M K J z L G ~ k J K L H 4 r &.b.-.* 9XFXFXFXDXFXFXAXFXFXFXFXFXFXFXFX",
"FXFXFXFXFXFXFXFXFXFXFXFXAXDXDX4XC J.X.F R D.A.L.Z.J.L.F.J.G.G.S.S.J.A.J.K.J.J.S.W.G.} w $.X.t.$ 9XDXFXFXFXFXFXAXFXFXFXFXFXFXFXFX",
"FXFXFXFXFXFXFXFXFXFXFXFXAXDXDX2XT Z.f.Q G J.<.$.$.$.$.O.%.` =.b.b.$.' %.` $.$.` ] %.,.1 &.X.%.* 9XDXFXAXAXFXFXAXFXFXFXFXFXFXFXFX",
"FXFXFXFXFXFXFXFXFXFXAXFXFXAXFX4XN H.1.E V G.@.> x = P K x G # x.x., 8 K 3 j 9.9.O @.2.8 @.X.-.- 9XAXFXFXFXAXFXFXFXFXFXFXFXFXFXFX",
"FXFXFXFXFXFXFXFXFXFXAXFXFXAXFX4XN J.x.E H G.$.U L.B.H.J.S.c.G 1...P N.G.J.D.F.A.9.*.%.1 @.1.-.= 9XAXAXFXFXAXFXFXFXFXFXFXFXFXFXFX",
"FXFXFXFXFXFXFXFXFXFXAXFXFXAXFX4XV G.} E L J.) % H.4.s.x.,.^ 6 z.f., B.x.4.1.,.>.6 ! %.4 @.X.-.& 9XAXFXFXFXAXFXFXFXFXFXFXFXFXFXFX",
"FXFXFXFXFXFXFXFXFXFXAXFXFXAXFX4XV G.f.E H G.$.Y S.1.o.,.,.W 0 1.4.6 D.d. .] %.%.a ! %.4 $.4.-.$ 9XAXFXFXFXAXFXFXFXFXFXFXFXFXFXFX",
"FXFXFXFXFXFXFXFXFXFXAXFXFXAXFX4Xl G.f.E c G.$.8 c.q.^ w.q.Y 8 <.z.i p.*.#.! ! ^ 1 S %.6 &.4.t.$ 9XFXFXFXFXAXFXFXFXFXFXFXFXFXFXFX",
"FXFXFXFXFXFXFXFXFXFXAXFXFXAXFX4XZ F.X.E T G.$.P 8 5 1 1 5 6 z d.s.9 z u , 2 2 5 j _ -.d O.1.-.* 9XFXFXFXFXAXFXFXFXFXFXFXFXFXFXFX",
"FXFXFXFXFXFXFXFXFXFXAXFXFXAXFX4XB G.f./ L G.x.u.4.x.1.f.h.x.X.4.x.X.f.b.T.i.4.b.u.1.-.6 @.f.-.* 9XAXFXFXFXAXFXFXFXFXFXFXFXFXFXFX",
"FXFXFXFXFXFXFXFXFXFXAXFXFXAXFX4XV D.s.~ 8.F.a.X.,.a.1.X.2.u.f.z.x.a.4.3.T.i. .a.4.} %.i $.s.-.- 9XAXFXFXFXAXFXFXFXFXFXFXFXFXFXFX",
"FXFXFXFXFXFXFXFXFXFXAXFXFXAXFX4XT J.} D 6.W.u.+ f + 7.9 3 f s m.4.s p k s 8 s p t e.t.8 ' X.t.- 9XAXFXFXFXAXFXFXFXFXFXFXFXFXFXFX",
"FXFXFXFXFXFXFXFXFXFXAXFXFXAXFX4XN D.X.^ 8.D.$.7.C.K.V.E.W.n.O i.u.P n.R.E.V.C.K.7.y.t.5 O.X.-.= 9XAXFXFXFXAXFXFXFXFXFXFXFXFXFXFX",
"FXFXFXFXFXFXFXFXFXFXAXFXFXAXFX4Xl G.X.~ k I.$.P F.v.x.Y.;.&.4 1.Y.+ l.g.n.v.1.t.1 S %.i &.1.-.$ 9XAXFXFXFXAXFXFXFXFXFXFXFXFXFXFX",
"FXFXFXFXFXFXFXFXFXFXAXFXFXAXFX4Xc G.f.E L G.y.y H t.,.| 4.w.* <.z.5 H.z.|  .] ^ 6 ` %.8 &.X.-.* 9XAXFXFXFXAXFXFXFXFXFXFXFXFXFXFX",
"FXFXFXFXFXFXFXFXFXFXAXFXFXAXFX4XA A.b.E L A.f.,._ 4 #.#.` W 6 x.f.d n.-.@.#.-.` 5 ! %.6 O.X.-.* 9XFXFXFXFXAXFXFXFXFXFXFXFXFXFXFX",
"FXFXFXFXFXFXFXFXFXFXAXFXFXAXFX4XN G.b.E U F.p.j.4.> y 6 1 5 i 4.X.> k 6 1 , 6 + + S -.6 O.f.-.* 9XFXFXFXFXAXFXFXFXFXFXFXFXFXFXFX",
"FXFXFXFXFXFXFXFXFXFXAXFXFXAXFX4XV H.f.A m E.o . 3. .>.{ ;.;.} a.h.>.=.2.<.' %.:.-.,.-.6 _ X.-.* 9XFXFXFXFXAXFXFXFXFXFXFXFXFXFXFX",
"FXFXFXFXFXFXFXFXFXFXAXFXFXAXFX4XB H.} / A U.X   v.x.h.v.x.x.1.c.4.h.f.j.h.v.x.h.f.f.-.6 $.X.-.* 9XFXFXFXFXAXFXFXFXFXFXFXFXFXFXFX",
"FXFXFXFXFXFXFXFXFXFXAXFXFXAXFX4XV G.X.E 0.V.( ( } s 6 * 8 1 U 1.X.7 4 3 a 2 6 * q @.-.4 @.X.-.$ 9XAXFXFXFXAXFXFXFXFXFXFXFXFXFXFX",
"FXFXFXFXFXFXFXFXFXFXAXFXFXAXFX4XN G.x.~ L S.j.h.%.+ p.Y.c.p.6 c.4.p <.z.m.c.V.M.4 _ ,.4 @.X.-.* 9XAXFXFXFXAXFXFXFXFXFXFXFXFXFXFX",
"FXFXFXFXFXFXFXFXFXFXAXFXFXAXFX4XT J.X.E J G.+.8.C Y.M.g.k.>.O 4.X.1 Z.l.M.n.m.3.6 @.>.1 @.1.-.* 9XAXFXFXFXAXFXFXFXFXFXFXFXFXFXFX",
"FXFXFXFXFXFXFXFXFXFXAXFXFXAXFX4XT F.X.~ J S._ 6 p.f.o.2.,.^ 6 1.4.i F.} o.,.%.*.6 *.%.1 $.x.$.$ 9XAXFXFXFXAXFXFXFXFXFXFXFXFXFXFX",
"FXFXFXFXFXFXFXFXFXFXAXFXFXAXFX4XB A.X.~ H S. .I Q.@.] t.$.D 6 z.g.7 B.4.>.] o.$., ^ -.2 $.x.-.$ 9XFXFXFXFXAXFXFXFXFXFXFXFXFXFXFX",
"FXFXFXFXFXFXFXFXFXFXAXFXFXAXFX4XV G.f.E L J.&.+ J 8 w - 8 u # b.,.# J i 8 w 2 a - #.-.0 @.d.-.* 9XFXFXFXFXAXFXFXFXFXFXFXFXFXFXFX",
"FXFXFXFXFXFXFXFXFXFXAXFXFXAXFX4Xl G.x./ J F.<.@.@.C _ @.&.^ _ g.b.O.@./ &.^ ! / Q | %.0 $.X.-.* 9XFXFXFXFXAXFXFXFXFXFXFXFXFXFXFX",
"FXFXFXFXFXFXFXFXFXFXAXFXFXAXFX4XA F.d.E G A.h.v.h.M.v.Y.g.j.n.X.z.k.h.k.l.k.h.M.n.a.' 6 $.s.-.e 9XFXFXFXFXAXFXFXFXFXFXFXFXFXFXFX",
"FXFXFXFXFXFXFXFXFXFXAXFXFXAXFX4XV G.} E L J.2.I 9.z q 9.v J x x.b.H n z a 4 I 9 K $.,.1 @.X.-.$ 9XAXFXFXFXAXFXFXFXFXFXFXFXFXFXFX",
"FXFXFXFXFXFXFXFXFXFXAXFXFXAXFX4XB J.1.E J G.$.1 { ..>.=.3.y.3 4.,.1 *.| 5.:.;.:.1 @.%.4 @.X.-.* 9XAXFXFXFXAXFXFXFXFXFXFXFXFXFXFX",
"FXFXFXFXFXFXFXFXFXFXAXFXFXAXFX4XB F.4.~ c S.$.8 L.B.F.M.M.2.- x.f.4 N.N.B.B.N.n.1 Q %.4 @.X.-.* 9XFXFXFXFXAXFXFXFXFXFXFXFXFXFXFX",
"FXFXFXFXFXFXFXFXFXFXAXFXFXAXFX4XV F.x.E J G.$.9.F.] X.| | *.< x.x.2 A.c.1. .o.! 0 *.-.6 @.X.-.* 9XFXFXFXFXAXFXFXFXFXFXFXFXFXFXFX",
"FXFXFXFXFXFXFXFXFXFXAXFXFXAXFX4XA F.x.E J G.@.K G.>.| %.-.^ 2 z.d.2 N.3.%.]  .-.6 *.-.6 _ X.-.$ 9XFXFXFXFXAXFXFXFXFXFXFXFXFXFXFX",
"FXFXFXFXFXFXFXFXFXFXAXFXFXAXFX4XB F.x.E J G.' 3 Q q U q 9.q < i.4.u &.K q q a U - Q -.4 @.X.-.* 9XFXFXFXFXAXFXFXFXFXFXFXFXFXFXFX",
"FXFXFXFXFXFXFXFXFXFXAXFXFXAXFX4XB G.f.~ L F.>.J z U U z J J V x.X.m c x J U 7.Y J ' ,.4 @.1.-.& 9XAXFXFXFXAXFXFXFXFXFXFXFXFXFXFX",
"FXFXFXFXFXFXFXFXFXFXAXFXFXAXFX4XE G.j.*.8.V.2.-.4.1.1.1.3.u.4.| <.1.,.4.4.X.2.X.t.1. .6 *.4.t.= 9XAXFXFXFXAXFXFXFXFXFXFXFXFXFXFX",
"FXFXFXFXFXFXFXFXDXFXAXFXDXFXNX8XO ^ W % O n & n ; ; ; ; ; ; ; ; ; ; ; ; ; ; ; ; : I : $ * I : # 8XNXFXDXFXAXFXFXFXFXFXFXFXFXFXFX",
"FXFXFXFXFXFXFXFXDXFXAXFXDXFXAXkX'..X X.X.X.X].oX.X.X.X.X.X.X.X.X.X.X.X.X.X.X.X.X.X.X X X X.X.X].kXAXFXDXFXAXFXFXFXFXFXFXFXFXFXFX",
"FXFXFXFXFXFXFXFXFXFXAXAXFXDXFXMXAXAXFXAXAXAXFXAXFXAXAXAXAXAXAXAXAXAXAXAXAXAXAXAXFXFXFXFXFXFXFXFXAXFXDXDXFXFXFXFXFXFXFXFXFXFXFXFX",
"FXFXFXFXFXFXFXFXDXAXAXAXFXFXFXFXFXAXFXGXFXFXFXDXFXFXFXFXFXFXFXFXFXFXFXFXFXFXFXFXAXAXAXAXAXAXAXAXFXFXDXFXFXAXFXFXFXFXFXFXFXFXFXFX",
"FXFXFXFXFXFXFXFXFXFXAXAXFXFXFXFXFXDXFXDXAXZXAXAXFXFXFXFXFXFXFXFXFXFXFXFXFXFXFXFXFXFXFXFXFXFXFXFXFXDXFXFXAXFXFXFXFXFXFXFXFXFXFXFX",
"FXFXFXFXFXFXFXFXFXFXAXAXAXFXFXFXFXSXFXFXFXFXFXFXFXFXFXFXFXFXFXFXFXFXFXFXFXFXFXFXAXAXAXAXAXAXAXAXDXFXFXFXAXFXFXFXFXFXFXFXFXFXFXFX",
"FXFXFXFXFXFXFXFXFXFXDXFXAXFXFXFXFXFXFXAXFXFXFXFXFXFXFXFXFXFXFXFXFXFXFXFXFXFXFXFXFXFXFXFXFXFXFXFXFXFXFXFXFXFXFXFXFXFXFXFXFXFXFXFX",
"FXFXFXFXFXFXFXFXFXFXDXFXFXAXFXFXDXDXDXFXFXFXFXFXFXFXFXFXFXFXFXFXFXFXFXFXFXFXFXFXAXFXFXFXFXAXFXFXFXAXAXFXFXDXFXAXFXFXFXFXFXFXFXFX"
};
