/* XPM */
static char *f1b0cab781fe412ca8236a3e19cd5cb9zAqqfv4mbyDAMl3F[] = {
/* columns rows colors chars-per-pixel */
"64 64 13 1 ",
"  c #F7F7F9",
". c #F7F8FA",
"X c #F9F9F9",
"o c #F8F8FA",
"O c #F8F9FB",
"+ c #F9F9FB",
"@ c #FAF8FB",
"# c #F9FBFA",
"$ c gray98",
"% c #F9FAFC",
"& c #FAFAFC",
"* c #FAFBFD",
"= c #FBFBFD",
/* pixels */
"......oooooooooooooooooooooooooooooooooooooooooooooooooooooooooo",
".....ooooooooooooooooooooooooooooooooooooooooooooooooooooooooooo",
"....oooooooooooooooooooooooooooooooooooooooooooooooooooooooooooo",
"oooooooooooooooooooooooooooooooooooooooooooooooooooooooooooooooo",
"oooooooooooooooooooooooooooooooooooooooooooooooooooooooooooooooo",
"oooooooooooooooooooooooooooooooooooooooooooooooooooooooooooooooo",
"oooooooooooooooooooooooooooooooooooooooooooooooooooooooooooooooo",
"oooooooooooooooooooooooooooooooooooooooooooooooooooooooooooooooo",
"oooooooooooooooooooooooooooooooooooooooooooooooooooooooooooooooo",
"oooooooooooooooooooooooooooooooooooooooooooooooooooooooooooooooo",
"oooooooooooooooooooooooooooooooooooooooooooooooooooooooooooooooo",
"oooooooooooooooooooooooooooooooooooooooooooooooooooooooooooooooo",
"oooooooooooooooooooooooooooooooooooooooooooooooooooooooooooooooo",
"oooooooooooooooooooooooooooooooooooooooooooooooooooooooooooooooo",
"oooooooooooooooooooooooooooooooooooooooooooooooooooooooooooooooo",
"oooooooooooooooooooooooooooooooooooooooooooooooooooooooooooooooo",
"oooooooooooooooooooooooooooooooooooooooooooooooooooooooooooooooo",
"oooooooooooooooooooooooooooooooooooooooooooooooo..oooooooooooooo",
"oooooooooooooooooooooooooooooooooooooooooooooooooooooooooooooooo",
"oooooooooooooooooooooooooooooooooooooooooooooooooooooooooooooooo",
"oooooooooooooooooooooooooooooooooooooooooooooooooooo&&oooooo&ooo",
"oooooooooooooooooooooooooooooooooooooooo ooooooo.ooooooooooo&ooo",
"oooooooooooooooooooooooooooooooooooooooooooooooooooooooooooooooo",
"oooooooooooooooooooooooooooooooooooooooooooooooooooooooooooooooo",
"ooooooooooo&&oooo&oooo&ooooooooooooooooooooooooooooooo&ooooooooo",
"ooooooooooooooooo&oooo&ooooooooooooooooooooo&ooooooooooooooooooo",
"oooooo&&oooooooooooooooooooooooooo&o&oooo&oo&ooooooooooo&&oooo&o",
"ooooo&&&oooooooooooooooooooooooooo&o&oooo&oooooooooooooooooooooo",
"ooooooo&oooooooooooooooooooooooooooooooooooo&oooooooooo&oooooooo",
"oooooooooo&&ooooooooooooooo&&ooooooooooooooo&oooo&oooo&&oooooooo",
"oooooooooooo&ooooooooooooo&&ooooooo&oooooooooooooooooooooooooo&&",
"oooooooooooooooooo&&&oooooooooooooo&oooo&ooooooooooooooo&&oooooo",
"oooooooooooooooooooooooooooooooooooooooooooooooo&ooooooooooooooo",
"&ooooooooooooooo&&oooooooooooooo&&ooooooooooooooooooooo&oooooooo",
"oooo&&oooo&oooooooooooo&oooooooooooo&&oooo&oooooooooooo&&&ooooo&",
"oooooooooo&ooo&&ooooooo&o&ooooo&oooooooooo&oooo&oooooooooooooooo",
"ooooooooooooooooooooooo&oo&oooo&oooooooooooooooooooooo&oooo&&ooo",
"&&oooooooooooooooooooooooo&ooooo&ooooooooooooooo&&oooo&ooooooooo",
"&oooooooo&oooooo&&oooooooooooooooooo&oooo&oooooooooooooooooooooo",
"oooo&oooo&ooo&oooooooooooooooooooooo&oooo&ooo&&ooooooooooooooooo",
"o&oooo&oooo&&ooooooooooooooo&ooooooooo&oooo&&ooooooooooooooooooo",
"o&oooo&ooooooooooooo&ooooooo&oooo&oooo&ooooooooooooooooooooooooo",
"oooooooooooooooooo&&&ooo&&oooooooooooooooooooooooooo&oooo&oooooo",
"oooooooooooooooooooooooooooooooooooooooooooooooooo&o&oooo&oooooo",
"oooooooooooooooooooooooooooooooooooooooooooooooooooooooooooooooo",
"oooooooooooo&&oooooooooooooo&ooooooooooooooo&oooooooooooooooooo&",
"ooooooooooo&oooooooooooo&ooo&oooooo&oooooo&&oooooo&&oooooooooo&&",
"ooo&&&ooooooooooooo&&oooooooooooooo&&&ooooooooooooooooo&&oooo&&&",
"oooooooooooooooooooooooooooooooooooooooooooooooooooooooooo&&&&&&",
"ooo&oooooooo&&oooooooo&&ooooooooooo&oooooooooooooooooooooo&&&&&&",
"ooo&&&ooooo&&oooooooooooooooooooooo&&&oooooooooooooooooooo&&&&&&",
"oooooooooooooooo&oooooooooooooooooooooooooooooooo&&ooo&&o&&&&&&&",
"oooooooooooooooooooooooo&&&&&&&&&&&&&&&&&&&&&&&&oooooooo&&&&&&&&",
"oooooooooooooooooooo&&&&&&&&&&&&&&&&&&&&&&&&&&&&&&&&&&&&&&&&&&&&",
"oooooooooooooooooooo&&&&&&&&&&&&&&&&&&&&&&&&&&&&&&&&&&&&&&&&&&&&",
"ooo&&ooooooooooooooo&&&&&&&&&&&&&&&&&&&&&&&&&&&&&&&&&&&&&&&&&&&&",
"ooooooo&oooooooo&&&oo&&&&&&&&&&&&&&&&&&&&&&&&&&&&&&&&&&&&&&&&&&&",
"&ooooo&&&&&&&&&&&&&oo&&&&&&&&&&&&&&&&&&&&&&&&&&&&&&&&&&&&&&&&&&&",
"oooooo&&&&&&&&&&&&&oo&&&&&&&&&&&&&&&&&&&&&&&&&&&&&&&&&&&&&&&&&&&",
"oooooo&&&&&&&&&&&&&&&&&&&&&&&&&&&&&&&&&&&&&&&&&&&&&&&&&&&&&&&&&&",
"oooooo&&&&&&&&&&&&&&&&&&&&&&&&&&&&&&&&&&&&&&&&&&&&&&&&&&&&&&&&&&",
"ooooooo&&&&&&&&&&&&&&&&&&&&&&&&&&&&&&&&&&&&&&&&&&&&&&&&&&&&&&&&&",
"oooooo&&&&&&&&&&&&&&&&&&&&&&&&&&&&&&&&&&&&&&&&&&&&&&&&&&&&&&&&&&",
"######&&&&&&&&&&&&&&&&&&&&&&&&&&oooooooooooooooo&&&&&&&&&&&&&&&&"
};
