/* XPM */
static char *_3b31cdf58904b91c458bef0dc826132md8Va29NpMPdbbMF[] = {
/* columns rows colors chars-per-pixel */
"64 64 223 2 ",
"   c #180800",
".  c #2A0B03",
"X  c #2B100B",
"o  c #281B0B",
"O  c #38170C",
"+  c #291B1C",
"@  c #3A1C17",
"#  c #1D2E0E",
"$  c #382419",
"%  c #393619",
"&  c #2C2F0D",
"*  c #331F21",
"=  c #2D2424",
"-  c #2E2C2A",
";  c #3B2424",
":  c #3B2C2C",
">  c #382D25",
",  c #2E2F31",
"<  c #393537",
"1  c #393030",
"2  c #491E15",
"3  c #51270F",
"4  c #4C251C",
"5  c #4A291D",
"6  c #46321D",
"7  c #5B2F19",
"8  c #6A3217",
"9  c #442C24",
"0  c #492C24",
"q  c #442C2C",
"w  c #4C2D2B",
"e  c #422227",
"r  c #423325",
"t  c #4C3125",
"y  c #45322D",
"u  c #4D362B",
"i  c #4A3E27",
"p  c #5C3522",
"a  c #543A2F",
"s  c #533228",
"d  c #443435",
"f  c #4C3334",
"g  c #453B3B",
"h  c #4A3C3A",
"j  c #473B34",
"k  c #553531",
"l  c #543D34",
"z  c #553D3A",
"x  c #593D39",
"c  c #623D2C",
"v  c #623520",
"b  c #693C36",
"n  c #3F413E",
"m  c #324225",
"M  c #54472D",
"N  c #4C502D",
"B  c #4B463B",
"V  c #5B473D",
"C  c #435034",
"Z  c #4B4223",
"A  c #62422A",
"S  c #6F422F",
"D  c #684638",
"F  c #754C37",
"G  c #77503F",
"H  c #77452C",
"J  c #3F3D47",
"K  c #593D41",
"L  c #423C48",
"P  c #623F43",
"I  c #494649",
"U  c #534443",
"Y  c #514A44",
"T  c #5C4944",
"R  c #5F4743",
"E  c #5B5147",
"W  c #494951",
"Q  c #5B5555",
"!  c #555459",
"~  c #6A4C41",
"^  c #644846",
"/  c #6E5245",
"(  c #6D554A",
")  c #785746",
"_  c #695D58",
"`  c #7A5A55",
"'  c #7C604B",
"]  c #647349",
"[  c #767C58",
"{  c #555561",
"}  c #6E6362",
"|  c #6E6F73",
" . c #7F7876",
".. c #786E6C",
"X. c #8A553D",
"o. c #90583D",
"O. c #855B45",
"+. c #896658",
"@. c #8C6651",
"#. c #A26B56",
"$. c #917462",
"%. c #857B78",
"&. c #987D74",
"*. c #867E69",
"=. c #B07E63",
"-. c #A67860",
";. c #758863",
":. c #7C9265",
">. c #898567",
",. c #8B817F",
"<. c #988D7C",
"1. c #969578",
"2. c #B7856D",
"3. c #B58B76",
"4. c #A9847E",
"5. c #97A27A",
"6. c #C08C75",
"7. c #C3937B",
"8. c #8D8382",
"9. c #958A87",
"0. c #9D9088",
"q. c #9E9593",
"w. c #AB8B83",
"e. c #AC9285",
"r. c #A69994",
"t. c #B69B97",
"y. c #BE9987",
"u. c #ADA78F",
"i. c #BBA79C",
"p. c #B8A397",
"a. c #B7A8A5",
"s. c #BAB8A8",
"d. c #BBB5B6",
"f. c #A9A4A1",
"g. c #D49D84",
"h. c #CFA086",
"j. c #D8A388",
"k. c #C5A69A",
"l. c #D9AE97",
"z. c #DBB59E",
"x. c #E3AA8C",
"c. c #E4B094",
"v. c #EAB395",
"b. c #EBB49A",
"n. c #E6B79D",
"m. c #EAB39A",
"M. c #C2ABA8",
"N. c #CAB4A6",
"B. c #D7B7A5",
"V. c #CCB4B2",
"C. c #CBBCB6",
"Z. c #DBBBB0",
"A. c #EBBCA3",
"S. c #F4BFA1",
"D. c #B9C3A1",
"F. c #BEC0BF",
"G. c #D0C1AE",
"H. c #D6C5BD",
"J. c #C7D0BD",
"K. c #C8C3BF",
"L. c #FFCEB3",
"P. c #E0C4B6",
"I. c #CAC8C8",
"U. c #D3C4C4",
"Y. c #DECECB",
"T. c #D9CAC6",
"R. c #DDD2CB",
"E. c #D4D3D6",
"W. c #DED3D1",
"Q. c #DEDDDB",
"!. c #DAD8D6",
"~. c #E6D3CC",
"^. c #EBDCD7",
"/. c #E6DCDC",
"(. c #E8D6D6",
"). c #E6CBC2",
"_. c #E5E4DD",
"`. c #EDE2DC",
"'. c #FBE2DE",
"]. c #F3E4DD",
"[. c #E3F2DB",
"{. c #D7D6E2",
"}. c #DEDEE7",
"|. c #E5DEE7",
" X c #E4E4E5",
".X c #ECE5E3",
"XX c #E7E9E5",
"oX c #E2E1EA",
"OX c #ECEBEA",
"+X c #EAE9E8",
"@X c #F3E7E7",
"#X c #FDE4E2",
"$X c #F3EBE7",
"%X c #F9EBE6",
"&X c #FEE7E9",
"*X c #F4EDEB",
"=X c #FCEEEC",
"-X c #EEF1ED",
";X c #F3F2EE",
":X c #FBF2EF",
">X c #F4FDEE",
",X c #ECEEF1",
"<X c #E2E1F1",
"1X c #F3EEF1",
"2X c #FFEFF1",
"3X c #EFF3F2",
"4X c #F4F4F4",
"5X c #FBF5F4",
"6X c #F5F8F5",
"7X c #FDFBF6",
"8X c #F4F5FB",
"9X c #FDF6FA",
"0X c #F6FEFD",
"qX c #FDFBFF",
"wX c #FEFBFC",
"eX c #F9FDFF",
"rX c #FBFCFF",
"tX c #FAFFFF",
"yX c #F9FEFD",
"uX c gray99",
"iX c #FEFFFF",
"pX c #FDFDFE",
"aX c #FCFCFC",
/* pixels */
"uXuXuXuXuXuXuXuXuXuXuXuXuXuXuXuXuXuXuXuXuXuXuXuXuXuXuXuXuXuXuXuXuXuXuXuXuXuXuXuXuXuXuXuXuXuXuXuXuXuXuXuXuXuXuXuXuXuXuXuXuXuXuXuX",
"uXuXuXuXuXuXuXuXuXuXuXuXuXuXuXuXuXuXuXuXuXuXuXuXuXuXuXuXuXuXuXuXuXuXuXuXuXuXuXuXuXuXuXuXuXuXuXuXuXuXuXuXuXuXuXuXuXuXuXuXuXuXuXuX",
"uXuXuXuXuXuXuXuXuXuXuXuXuXuXuXuXuXuXuXuXuXuXuXuXuXuXuXuXuXuXuXuXuXuXuXuXuXuXuXuXuXuXuXuXuXuXuXuXuXuXuXuXuXuXuXuXuXuXuXuXuXuXuXuX",
"uXuXuXuXuXuXuXuXuXuXuXuXuXuXuXuXuXuXuXuXuXuXuXuXuXuXuXuXuXuXuXuXuXuXuXuXuXuXuXuXuXuXuXuXuXuXuXuXuXuXuXuXuXuXuXuXuXuXuXuXuXuXuXuX",
"uXuXuXuXuXuXuXuXuXuXuXuXuXuXuXuXuXuXuXuXuXuXuXuXuXuXuXuXuXuXuXuXuXuXuXuXuXuXuXuXuXuXuXuXuXuXuXuXuXuXuXuXuXuXuXuXuXuXuXuXuXuXuXuX",
"uXuXuXuXuXuXuXuXuXuXuXuXuXuXuXuXuXuXuXuXuXuXuXuXuXuXuXuXuXuXuXuXuXuXuXuXuXuXuXuXuXuXuXuXuXuXuXuXuXuXuXuXuXuXuXuXuXuXuXuXuXuXuXuX",
"uXuXuXuXuXuXuXuXuXuXuXuXuXuXuXuXuXuXuXuXuXuXuXuXuXuXuXuXuXuXuXuXuXuXuXuXuXuXuXuXuXuXuXuXuXuXuXuXuXuXuXuXuXuXuXuXuXuXuXuXuXuXuXuX",
"uXuXuXuXuXuXuXuXuXuXuXuXuXuXuXuXuXuXuXuXuXuXuXuXuXuXuXuXuXuXuXuXuXuXuXuXuXuXuXuXuXuXuXuXuXuXuXuXuXuXuXuXuXuXuXuXuXuXuXuXuXuXuXuX",
"uXuXuXuXuXuXuXuXuXuXuXuXuXuXuXuXuXuXuXuXuXuXuXuXuXuXuXuXuXuXuXuXuXuXuXuXuXuXuXuXuXuXuXuXuXuXuXuXuXuXuXuXuXuXuXuXuXuXuXuXuXuXuXuX",
"uXuXuXuXuXuXuXuXuXuXuXuXuXuXuXuXuXuXuXuXuXuXuXuXuXuXuXuXuXuXuXuXuXuXuXuXuXuXuXuXuXuXuXuXuXuXuXuXuXuXuXuXuXuXuXuXuXuXuXuXuXuXuXuX",
"uXuXuXuXuXuXuXuXuXuXuXuXuXuXuXuXuXuXuXuXuXuXuXuXuXuXuXuXuXuXuXuXuXuXaXuXuXuXuXuXuXuXuXuXuXuXuXuXuXuXuXuXuXuXuXuXuXuXuXuXuXuXuXuX",
"uXuXuXuXuXuXuXuXuXuXuXuXuXuXuXuXuXuXuXuXuXuXuXuXuXuXuXuXuXuXuXuXuXaXaXuXuXuXuXuXuXuXuXuXuXuXuXuXuXuXuXuXuXuXuXuXuXuXuXuXuXuXuXuX",
"uXuXuXuXuXuXuXuXuXuXuXuXuXuXuXuXuXuXuXuXuXuXuXuXuXuXuXuXuXuXuXuXuXuXuXuXuXuXuXuXuXuXuXuXuXuXuXuXuXuXuXuXuXuXuXuXuXuXuXuXuXuXuXuX",
"uXuXuXuXuXuXuXuXuXuXuXuXuXuXuXuXuXuXuXuXuXuXuXuXuXuXuXuXuXuXuXuXuXuXuXuXuXuXuXuXuXuXuXuXuXuXuXuXuXuXuXuXuXuXuXuXuXuXuXuXuXuXuXuX",
"uXuXuXuXuXuXuXuXuXuXuXuXuXuXuXuXuXuXuXuXuXuXuXuXuXuXuXuXuXuXuXuXuXuXuXuXuXuXuXuXuXuXuXuXuXuXuXuXuXuXuXuXuXuXuXuXuXuXuXuXuXuXuXuX",
"uXuXuXuXuXuXuXuXuXuXuXuXuXuXuXaXaXaXaXrXrXrXrXrXuXaXwXwXwXwXwXwXwXwXwXwXwXuXuXuXuXaXaXaXwXuXuXuXuXuXuXuXuXuXuXuXuXuXuXuXuXuXuXuX",
"uXuXuXuXuXuXuXuXuXuXuXuXuXuXuXaX7X7XaXrX0X0X0XrXuX5XaX`.aXaX1XwX#X#X=XwXuX4XuX8XaXaX7XwXwXwXuXrXuXuXuXuXuXuXuXuXuXuXuXuXuXuXuXuX",
"uXuXuXuXuXuXuXuXuXuXuXaXuXuXuXaX7X7XaXrX0X0X0XrXuXaX=X7X=X(.=X(.k @ z Y.1XuXuX,XaXaX7X7XwXwXuXrXuXuXuXuXuXuXuXuXuXuXuXuXuXuXuXuX",
"uXuXuXuXuXuXuXuXuXuXaXaXaXaXuXaX7X7X7XyX0X0XrXuX*X:X7XT.l $ q y O l R : uXuX8XuXaXaX7XaXwXwXuXrXuXuXuXuXuXuXuXuXuXuXuXuXuXuXuXuX",
"uXuXuXuXuXuXuXuXuXuXaXaXaXaXuXaX7X7X7XyX0XrXrXwXaX^.a t ~ l ^ l / D R h OX8X,XuXaXaX7XaXwXwXuXrXuXuXuXuXuXuXuXuXuXuXuXuXuXuXuXuX",
"uXuXuXuXuXuXuXuXuXuXuXuXuXuXuXaX7X7X7XrXrXrXrX7X].9 / / 5 D ( ~ ~ k q + 1XuXuXuXaX7X7XwXwXwXrXrXuXuXuXuXuXuXuXuXuXuXuXuXuXuXuXuX",
"uXuXuXuXuXuXuXuXuXuXuXuXuXuXuXaX7X7X7XrXrXrXuX5Xl u A c O.S c 5 @ D z + uX8XuXuXuXaXwX7XwXwXrXrXuXuXuXuXuXuXuXuXuXuXuXuXuXuXuXuX",
"uXuXuXuXuXuXuXuXuXuXuXuXuXuXuXaXaX7XuXrXrXrX6X;X$ A ) 3 7 F 7 p p @ @ @X4XuXuXuXwXwXwXwXwXwXrXrXuXuXuXuXuXuXuXuXuXuXuXuXuXuXuXuX",
"uXuXuXuXuXuXuXuXuXuXuXuXuXuXuXaXaX7XuXrXrXrX5X%Xl ) O.h.7.=.3.3.y.&.y =XuXuXuXuXwXwXwX7XwXwXrXrXuXuXuXuXuXuXuXuXuXuXuXuXuXuXuXuX",
"uXuXuXuXuXuXuXuXuXuXuXuXuXuXuXaX5X6XuX8XrXuX1X%X0 +.-.j.v.S.b.A.B.e.u `.uXuXuX8XuX6XuXaX;X4XuX4XuXuXuXuXuXuXuXuXuXuXuXuXuXuXuXuX",
"uXuXuXuXuXuXuXuXuXuXuXuXuXuXuXaXwXaXuX,X8XuXuX~.0 O.n.v.8 x.b.c.p e.l 7XuXuX8XuX8XuX.XaX5XuX XuXuXuXuXuXuXuXuXuXuXuXuXuXuXuXuXuX",
"uXuXuXuXuXuXuXuXuXuXuXuXuXuXuXaXOXaXuXuXuX4X.Xy N.3.A.c.8 x.L.c.p p.V U.wXuX8X8XoXwXuXuXaX6XuXOXuXuXuXuXuXuXuXuXuXuXuXuXuXuXuXuX",
"uXuXuXuXuXuXuXuXuXuXuXuXuXuXuXaXaXuXuXuXuXuX.XT &.@.2.S.v.x.b.7.z.B.9 =XuXuX|.W < I I.wX5XaXuX6XuXuXuXuXuXuXuXuXuXuXuXuXuXuXuXuX",
"uXuXuXuXuXuXuXuXuXuXuXuXuXuXuXaXaX7XuX+XuXuXwX(.$ G 3.v.g.o.X.O.O.$.^ ^.wX{.! oXuXoXQ uXaX7XXXuXuXuXuXuXuXuXuXuXuXuXuXuXuXuXuXuX",
"uXuXuXuXuXuXuXuXuXuXuXuXuXuXuXaX4X5XuX8XuX6X4X7X0 G 7.2.o.j.g.l.l.' . =X9X{ {.uXwXE.< /.7XOXuXuXuXuXuXuXuXuXuXuXuXuXuXuXuXuXuXuX",
"uXuXuXuXuXuXuXuXuXuXuXuXuXuXuXaX5X7XuX4XuXuXuXR.t p O.H 8 6.#.X.3.D u =X|.J <X<XW J 4XuXaXaXOX-XuXuXuXuXuXuXuXuXuXuXuXuXuXuXuXuX",
"uXuXuXuXuXuXuXuXuXuXuXuXuXuXuXwXuXuX4XyXuX6X_.j $ 6 A A O.v S c S c t H.g < < L |.4X4X5XuX5XuXuXuXuXuXuXuXuXuXuXuXuXuXuXuXuXuXuX",
"uXuXuXuXuXuXuXuXuXuXuXuXuXuXuXwXwX4XuXyX>X[.m ;.;.& % Z M / t ~ D 2 4 0 X V.M.: =XwXwXwX5XwXuX9XwXuXuXuXuXuXuXuXuXuXuXuXuXuXuXuX",
"uXuXuXuXuXuXuXuXuXuXuXuXuXuXuXwXuXuXXX>X7X# ;.:.:.] & & i r l a 4 b . D k t.V.h %X7XuXwX9XuXuXwXwXuXuXuXuXuXuXuXuXuXuXuXuXuXuXuX",
"uXuXuXuXuXuXuXuXuXuXuXuXuXuXuXuX4XuXaX7XJ.C D.1.] 5.[ & % o r X 5 O D ` k M.t.> $X7XuXwXuXuXuXuXuXuXuXuXuXuXuXuXuXuXuXuXuXuXuXuX",
"uXuXuXuXuXuXuXuXuXuXuXuXuXuXuXuXuXuX7X_.B s.D.>.N [ >.1.*.r i.M.. +.` u V.T.0.h ;X7XuXyXeXuXuXrXuXuXuXuXuXuXuXuXuXuXuXuXuXuXuXuX",
"uXuXuXuXuXuXuXuXuXuXuXuXuXuXuXuX1X4XaX7XY s.u.M & >.>.<.<.V `.].D / 9 a.H.p.> R.7XaXuXrX0X0X0X0XrXuXuXuXuXuXuXuXuXuXuXuXuXuXuXuX",
"uXuXuXuXuXuXuXuXuXuXuXuXuXuXuXuXuXuXwX!.> <.G.N.N.i 6   E R.7XR.'.0 ^ M.r.%.Y ;XaXyXrX0X0X0X0X0XrXuXuXuXuXuXuXuXuXuXuXuXuXuXuXuX",
"uXuXuXuXuXuXuXuXuXuXuXuXuXuXuXrX,X4XuX.X_ &.i.P.B.k.N.( H.`.E R.C.'.~.9 9.h `.7XaXaXrXrXrXrXrXrXrXuXuXuXuXuXuXuXuXuXuXuXuXuXuXuX",
"uXuXuXuXuXuXuXuXuXuXuXuXuXuXuXrXuXrXwXaXY.x w.w.k.Z.).e._ C._._ #X#Xw ; U ^.5XaXaXaXuXrXuXuXuXuXuXuXuXuXuXuXuXuXuXuXuXuXuXuXuXuX",
"uXuXuXuXuXuXuXuXuXuXuXuXuXuXuXrXrXuX5X:XwX'.0 s 4.t.&.r.B ;XI..X#Xw @ (.#X5XwX:X7XwXwXuXwXwXwXwXwXuXuXuXuXuXuXuXuXuXuXuXuXuXuXuX",
"uXuXuXuXuXuXuXuXuXuXuXuXuXuXuXrX3XuX6XaX7X#X'.2 k w f T r.d.7X$Xz w ` x #X=X5XwXwXwXwXwXwXwXwXwXwXuXuXuXuXuXuXuXuXuXuXuXuXuXuXuX",
"uXuXuXuXuXuXuXuXuXuXuXuXuXuXuXrX4X3XuX@XwXwX&X9 t.M.a.a._ 4XuX< + P ^ q f 2X5XwX9X5X9X9X9X9X9XwXwXuXuXuXuXuXuXuXuXuXuXuXuXuXuXuX",
"uXuXuXuXuXuXuXuXuXuXuXuXuXuXuXuXuXuX1XuX@X=X; f (.wXwX@X/.uXE.= q e K ^ K T.wX5XwXwX9X9X9XwXwXwXwXuXuXuXuXuXuXuXuXuXuXuXuXuXuXuX",
"uXuXuXuXuXuXuXuXuXuXuXuXuXuXuXuXuXuXuX4X.XQ = h U W.uX4XuXOX XQ U.f ; h + U @X*XuXuXwXwXwXuXwXuXwXuXuXuXuXuXuXuXuXuXuXuXuXuXuXuX",
"uXuXuXuXuXuXuXuXuXuXuXuXuXuXuXuX+XuX+XuX1 + 1 - + Y E.uXI.E.| d.5X&X* d d = g .X7X7X5X4X6X6XwXuXuXuXuXuXuXuXuXuXuXuXuXuXuXuXuXuX",
"uXuXuXuXuXuXuXuXuXuXuXuXuXuXuXuX5X+XuX X, I ! n < F.I , W ! I.uX1X/.K 1 g < Q !.4X4X4X3X4X4X6XuXuXuXuXuXuXuXuXuXuXuXuXuXuXuXuXuX",
"uXuXuXuXuXuXuXuXuXuXuXuXuXuXuXuX4XuX4X4X4XOXQ.4XOXuXOX XOX}.uX8XwX9X(.5XOX7XQ.yX6X6X6X4X6XuXrXuXaXaXaXaXaXaXuXuXuXuXuXuXuXuXuXuX",
"uXuXuXuXuXuXuXuXuXuXuXuXuXuXuXuXuXuXuXuXuXuXuXrXuXrXuXuXuXuXuXuXwXwXwXwXwXuXuXuXrXrXrXrXrXrXrXaXaXaX7X;XaXaX7XuXaXaXuXuXyXyXrXrX",
"uXuXuXuXuXuXuXuXuXuXuXuXuXuXuXuXuXuXuXuXuXuXuXuXuXuXuXuXuXuXuXuXwXwXuXuXuXuXuXuXuXuXuXuXuXuXuXaX7X:XaXaX7X;X7XaXaXaXuXuXaXyXrXrX",
"uXuXuXuXuXuXuXuXuXuXuXuXuXuXuXuXuXuXuXuXuXuXuXuXuXuXuXuXuXuXuXuXwXuXuXuXuXuXuXuXuXuXuXuXuXuXuXaX7XaX:XK.f..XaX;XwXaXwXuXaXaXuXuX",
"uXuXuXuXuXuXuXuXuXuXuXuXuXuXuXuXuXuXuXuXuXuXuXuXuXuXuXuXuXuXuXuXwXuXuXuXuXuXuXuXuXuXuXuXuXuXuXaX5XaX9.Y g I.5X*XwXwXwXwXwXaXuXuX",
"uXuXuXuXuXuXuXuXuXuXuXuXuXuXuXuXuXuXuXuXuXuXuXuXuXuXuXuXuXuXuXuXuXuXuXuXuXuXuXuXuXuXuXuXuXuXuXaXaXaX8.r.q.*X.XaXwXwXwXwXwXwXwXwX",
"uXuXuXuXuXuXuXuXuXuXuXuXuXuXuXuXuXuXuXuXuXuXuXuXuXuXuXuXuXuXuXuXuXuXuXuXuXuXuXuXuXuXuXuXuXuXuXaX$X:X%.9.8.s.d.$XwXwXwXwXwXwXwXwX",
"uXuXuXuXuXuXuXuXuXuXuXuXuXuXuXuXuXuXuXuXuXuXuXuXuXuXuXuXuXuXuXuXuXuXuXuXuXuXuXuXuXuXuXuXuXuXuXaXaXW.} g g } T.5XwXwXwXwXwXwXwXwX",
"uXuXuXuXuXuXuXuXuXuXuXuXuXuXuXuXuXuXuXuXuXuXuXuXuXuXuXuXuXuXuXuXuXuXuXuXuXuXuXuXuXuXuXuXuXaXuXaX5Xq.%.,.q.%.5XaXwXwXwXwXwXwXwXwX",
"uXuXuXuXuXuXuXuXuXuXuXuXuXuXuXuXuXuXuXuXuXuXuXuXuXuXuXuXuXuXuXuXuXuXuXuXuXuXuXuXuXuXuXuXuXuXuXaX5XW.%.U. .a.aXaXwXwXwXwXwXwXwXwX",
"uXuXuXuXuXuXuXuXuXuXuXuXuXuXuXuXuXuXuXuXuXuXuXuXuXuXuXuXuXuXuXuXuXuXuXuXuXuXuXuXuXuXuXuXuXuXuXaXaX9...Y.%. ..X*XwXaXwXwXwXwXuXuX",
"uXuXuXuXuXuXuXuXuXuXuXuXuXuXuXuXuXuXuXuXuXuXuXuXuXuXuXuXuXuXuXuXuXuXuXuXuXuXuXuXuXuXuXuXuXuXuXaXaX_..X7X7XQ.aXaXwXaXwXuXwXuXuXrX",
"uXuXuXuXuXuXuXuXuXuXuXuXuXuXuXuXuXuXuXuXuXuXuXuXuXuXuXuXuXuXuXuXuXuXuXuXuXuXuXuXuXuXuXuXuXuXuXaX.XaXaX.XaXaX7XOXaXaXuXrXrXrXrXrX",
"uXuXuXuXuXuXuXuXuXuXuXuXuXuXuXuXuXuXuXuXuXuXuXuXuXuXuXuXuXuXuXuXuXuXuXuXuXuXuXuXuXuXuXuXuXuXuXaXaXOXaX7X;X7XaXaXyXyXyXyXyXyXrXrX",
"uXuXuXuXuXuXuXuXuXuXuXuXuXuXuXuXuXuXuXuXuXuXuXuXuXuXuXuXuXuXuXuXuXuXuXuXuXuXuXuXuXuXuXuXuXuXuXaXaX7X6X7X7X6X;XaXyXyXyXyXyX6XrX0X",
"uXuXuXuXuXuXuXuXuXuXuXuXuXuXuXuXuXuXuXuXuXuXuXuXuXuXuXuXuXuXuXuXuXuXuXuXuXuXuXuXuXuXuXuXuXuXuXaX+XaXaX-XaXaX-X7XyXyXyX6X6X0X0X0X",
"uXuXuXuXuXuXuXuXuXuXuXuXuXuXuXuXuXuXuXuXuXuXuXuXuXuXuXuXuXuXuXuXuXuXuXuXuXuXuXuXuXuXuXuXuXuXuXaXaX;X7X7XyXOXyX6XyXyX6X6X0X0X0X0X"
};
