/* XPM */
static char *_78b9ad8e7f14cb98ae308159abe29301vyIYm1Kwry0jDzR[] = {
/* columns rows colors chars-per-pixel */
"64 64 232 2 ",
"   c #180400",
".  c #1D1508",
"X  c #270D07",
"o  c #23150A",
"O  c #231B0E",
"+  c #2A190E",
"@  c #2A140A",
"#  c #34170D",
"$  c #2C1C12",
"%  c #271C11",
"&  c #311C14",
"*  c #361C15",
"=  c #2C2316",
"-  c #35251A",
";  c #3D251B",
":  c #372619",
">  c #3C2C23",
",  c #392722",
"<  c #3B3125",
"1  c #4A1D12",
"2  c #411D0F",
"3  c #46271A",
"4  c #56291B",
"5  c #4D220F",
"6  c #442D24",
"7  c #492D26",
"8  c #4C3226",
"9  c #44322C",
"0  c #4C332B",
"q  c #473629",
"w  c #53362B",
"e  c #59372B",
"r  c #4B3633",
"t  c #4A3835",
"y  c #543C34",
"u  c #523E3B",
"i  c #573A32",
"p  c #572B20",
"a  c #612D22",
"s  c #66382B",
"d  c #6C3D32",
"f  c #613F33",
"g  c #723C2F",
"h  c #5A433B",
"j  c #574239",
"k  c #63453B",
"l  c #6B4A3D",
"z  c #674337",
"x  c #714135",
"c  c #774539",
"v  c #755334",
"b  c #554341",
"n  c #5A4643",
"m  c #5C4A44",
"M  c #5E4C4A",
"N  c #634C44",
"B  c #614E4C",
"V  c #6A4F46",
"C  c #774E43",
"Z  c #64524D",
"A  c #6C554B",
"S  c #6C5A4D",
"D  c #685546",
"F  c #76584B",
"G  c #665452",
"H  c #695653",
"J  c #6B5954",
"K  c #6D5B59",
"L  c #675B57",
"P  c #735C53",
"I  c #725F5C",
"U  c #795C53",
"Y  c #6D625D",
"T  c #7B6456",
"R  c #75625C",
"E  c #7C655B",
"W  c #7E6B5D",
"Q  c #746155",
"!  c #746462",
"~  c #7A6663",
"^  c #756A66",
"/  c #7C6A65",
"(  c #776C68",
")  c #7C6C6A",
"_  c #7E726E",
"`  c #7F7164",
"'  c #7F7470",
"]  c #6F6460",
"[  c #834C3D",
"{  c #8A523F",
"}  c #82603B",
"|  c #8A5444",
" . c #865949",
".. c #935C4A",
"X. c #87574B",
"o. c #886446",
"O. c #826B5D",
"+. c #896959",
"@. c #986755",
"#. c #8D725C",
"$. c #99745A",
"%. c #92634F",
"&. c #836D63",
"*. c #8A6F62",
"=. c #816E6B",
"-. c #886F68",
";. c #847264",
":. c #8C7465",
">. c #84726C",
",. c #8B756C",
"<. c #86786C",
"1. c #8B7A6D",
"2. c #937C6D",
"3. c #967A68",
"4. c #837572",
"5. c #8A7672",
"6. c #857A76",
"7. c #8B7A74",
"8. c #867D78",
"9. c #8A7D7A",
"0. c #927D74",
"q. c #937D79",
"w. c #987C73",
"e. c #A47864",
"r. c #9A836E",
"t. c #8C8175",
"y. c #87817B",
"u. c #8C827E",
"i. c #938176",
"p. c #95847C",
"a. c #9B857D",
"s. c #9B897E",
"d. c #9A8577",
"f. c #AB886D",
"g. c #A48C7D",
"h. c #A68A76",
"j. c #AC947C",
"k. c #A99279",
"l. c #B29474",
"z. c #B39A7C",
"x. c #B7997B",
"c. c #B28E76",
"v. c #BDA37F",
"b. c #C4A57F",
"n. c #CBA57E",
"m. c #8F8480",
"M. c #928682",
"N. c #998780",
"B. c #968B83",
"V. c #9B8A83",
"C. c #999185",
"Z. c #A28D84",
"A. c #A58C84",
"S. c #A49284",
"D. c #AC9384",
"F. c #AD9A85",
"G. c #A3928A",
"H. c #AB958B",
"J. c #AD9C8B",
"K. c #B29584",
"L. c #B39B85",
"P. c #B89F83",
"I. c #B29689",
"U. c #B29C8B",
"Y. c #B99D89",
"T. c #BB9686",
"R. c #AC9691",
"E. c #B69C96",
"W. c #B08F80",
"Q. c #BCA284",
"!. c #B6A68D",
"~. c #B4A28B",
"^. c #BAA38B",
"/. c #BCAA8E",
"(. c #B4A186",
"). c #B4A393",
"_. c #BCA495",
"`. c #BBAB93",
"'. c #BCAE9A",
"]. c #B8A69A",
"[. c #BCB19D",
"{. c #AFA08B",
"}. c #BEB5A4",
"|. c #C29F81",
" X c #C4A583",
".X c #C9A684",
"XX c #C5AA84",
"oX c #CCAC86",
"OX c #C9A789",
"+X c #C4AB8B",
"@X c #CDAD8A",
"#X c #C1A68A",
"$X c #D0AE89",
"%X c #D2AB86",
"&X c #CDB086",
"*X c #CEB289",
"=X c #D2B18A",
"-X c #D9B38C",
";X c #C1A794",
":X c #C6AB95",
">X c #CBB393",
",X c #CAB398",
"<X c #D3B593",
"1X c #DAB692",
"2X c #D7BA97",
"3X c #E1BA99",
"4X c #C6ACA4",
"5X c #C2B4A1",
"6X c #CDB4A8",
"7X c #D3B9A7",
"8X c #D4BCB7",
"9X c #DBC5A8",
"0X c #DCC5B9",
"qX c #E7D4B5",
"wX c #F7DDBA",
"eX c #D9C097",
"rX c #DAD4C4",
"tX c #F8E8CA",
"yX c #EBE5D5",
"uX c #FAEED6",
"iX c #FFF7D9",
"pX c #EFE0C1",
"aX c #FEFDE3",
"sX c #FEFFEC",
"dX c #F9F6E5",
"fX c #FFFFF1",
"gX c #FFFFF5",
"hX c #FEFFF3",
"jX c #FBFFFA",
"kX c #FEFFF9",
"lX c #FCFFFA",
"zX c #E9D2CA",
/* pixels */
"N.N.N.N.N.V.V.V.G.G.V.G.G.V.V.V.C.C.C.C.B.B.B.N.S.V.a.a.A.H.H.A.S.S.S.D.H.H.H.J.J.{.{.~.~.!.!.!.!.`.`.`.5X[.}.rXfXfXgXgXkXkXjXjX",
"N.N.N.N.N.V.V.V.G.G.V.G.V.V.V.C.C.C.C.C.B.B.B.N.i.i.a.H.H.A.Z.S.Z.S.S.D.S.S.J.~.J.{.~.(.~.!.!.!.!.`.`.`.5X[.}.rXfXfXgXgXkXkXjXjX",
"N.N.N.N.V.V.V.V.V.V.V.V.V.V.V.V.C.C.C.B.B.B.B.s.s.s.S.H.p.E A P Q ;.p.S.D.H.H.J.J.{.~.~.~.!.!.!.!.`.`.`.5X[.}.rXfXfXgXgXkXkXjXjX",
"N.N.N.N.V.V.V.V.V.V.V.V.V.V.V.V.V.B.B.B.N.s.s.s.V.S.V.;.m q ; : ; j Q 0.S.).J.g.J.J.~.~.~.!.!.!.!.`.`.`.5X[.}.rXfXfXgXgXkXkXjXjX",
"N.N.N.V.V.V.V.V.V.V.V.V.V.V.V.V.V.V.V.V.s.s.s.s.7.s.>.t = > < $ @ : 0 D 1.J.U.g.J.L.~.(.~.~.!.!.!.`.`.`.5X[.}.rXfXfXgXgXkXkXjXjX",
"N.N.N.V.V.V.V.V.V.V.V.V.V.V.V.V.V.V.V.s.a.a.a.a.t.t.S = . < q - > 3 ; 6 D d.U.U.J.J.U.(.~.~.!.!.!.`.`.`.5X[.}.rXfXfXgXgXkXkXjXjX",
"N.N.N.V.N.V.V.V.V.V.V.V.N.N.N.N.V.Z.g.a.a.a.a.a.s.Y < % = = - = 6 8 3 - 0 O.D.).U.L.U.(.~.~.^.!.!.`.`.`.5X[.}.rXfXfXgXgXkXkXjXjX",
"N.N.N.V.V.V.V.V.V.N.V.V.V.V.N.N.Z.Z.g.a.a.a.a.a.1.<   O - = O - + 6 8 ; 6 P d.U.U.L.U.(.~.~.^.^.!.`.`.`.5X[.}.rXfXfXgXgXkXkXjXjX",
"a.a.N.N.N.N.N.N.N.N.N.N.N.N.N.N.N.a.d.w.p.p.p.p.` , = % . O . = : 8 ; 8 8 j 2.I.F.I.Y.~.^.^.^.^.`.~.`.!.[.}.'.yXfXfXgXgXkXkXjXjX",
"N.N.N.N.N.N.N.N.N.N.N.N.N.N.N.N.a.a.d.q.p.p.p.p.S % % = O = O - - 6 ; 8 w j 2.I.K.I.Y.~.^.^.^.^.`.~.`.!.'.5X'.yXfXfXgXgXkXkXjXjX",
"a.a.N.N.N.N.V.V.N.N.N.N.N.N.N.a.a.d.d.i.i.i.p.p.m . o % + = O - * 6 ; 8 w i 3.K.K.I.Y.Y.^.^.Q.Q.`.~.`.!.'.[.'.yXfXfXgXgXkXkXjXjX",
"a.a.N.N.N.N.V.V.a.N.N.N.N.a.a.a.a.p.p.i.i.i.i.i.B o o + o % . = ; 7 * 7 8 w :.Y.K.K.Y.Y.Y.^.^.Q.`.~.`.~.'.[.}.yXfXfXgXgXkXkXjXjX",
"a.a.N.N.N.N.V.V.a.a.N.N.N.N.a.a.a.p.p.t.t.t.i.i.J + + + o & $ > 0 w ; 8 8 8 :.Y.D.K.L.P.Y.^.Q.Q.^.~.`.~.`.[.}.uXfXfXgXgXkXkXjXjX",
"a.a.N.N.N.N.N.V.a.a.a.a.a.a.a.p.p.u.t.t.t.t.t.i.S + + & & 6 9 h k k 8 k i w *.I.D.K.I.L.Y.Y.Q.Q.!.~.'.~.`.'.}.dXfXfXgXgXkXkXjXjX",
"a.a.N.N.N.N.N.N.a.a.a.a.p.p.p.p.u.u.t.t.t.t.t.t.Z + & ; 6 h h A A F k U F z *.D.D.K.K.L.Y.Y.Y.Q.!.~.'.~.).'.}.dXfXfXgXgXkXkXjXjX",
"N.a.N.N.B.N.V.N.p.p.p.p.p.p.p.p.u.u.t.t.t.t.t.t.Z & ; 0 i N k F F U F 3.+.l #.h.j.z.K.L.Y.Y.Y.~.!.~.'.~.).`.}.dXsXsXfXfXfXgXlXlX",
"M.M.M.N.N.N.B.N.N.N.M.p.M.p.p.p.p.i.t.7.7.1.7.1.D # 3 e z C c C F  .+.$.+.x v x.l.l.z.L.L.U.U.J.).{.~.`.!.~.7XtXaXaXaXaXsXfXfXsX",
"M.m.M.M.M.M.M.B.M.M.M.m.m.m.u.p.p.i.i.7.1.1.1.1.D * 4 f d c c X. .C  .$.$.v } x.l.l.z.L.U.U.U.J.).J.~.`./.(.,XqXiXiXaXaXsXsXsXfX",
"m.M.M.M.M.M.M.M.M.M.M.M.m.m.u.u.p.i.i.7.1.1.1.1.k : w f p s g %. .x z @.f.o.o.x.l.l.z.L.U.U.J.J.).F.{.`.`.(.^.,XpXuXaXaXsXaXsXsX",
"u.m.m.M.M.M.M.M.M.M.m.m.m.u.u.t.p.i.7.7.1.1.1.1.h : e e 1 4 a |  .4 5 o.f.o.o.l.l.l.z.L.L.U.U.J.).J.J./.`.^.^./.9XpXaXaXsXaXsXsX",
"u.u.m.m.M.M.M.M.M.m.m.u.u.u.u.t.i.i.7.7.1.1.<.<.k 3 i e 1 1 4 [  .4 5  .f.$.o.f.l.l.z.L.L.U.J.J.).J.F.~././.+X:X:X9XuXaXaXaXaXsX",
"u.u.u.u.m.M.M.M.m.u.u.u.u.u.u.t.t.i.7.7.1.1.<.<.P 0 z z p p a | %.x s %.l.e.$.l.l.j.F.I.U.U.U.J.).).J.J.~./.>X,X#X2XqXuXaXaXaXaX",
"u.u.u.u.m.m.M.M.u.u.u.u.u.u.u.9.t.7.7.1.1.<.<.<.O.i l C d d d | @. .{ $.c.f.3.k.j.j.F.I.I.U.U.U.).).~.~.(.^.+X>X+X>X2XqXuXaXaXaX",
"u.u.u.u.u.m.M.M.u.u.u.u.u.u.8.9.t.7.7.1.1.<.<.<.&.i z C c C c | @.@.%.$.c.f.3.h.j.j.F.I.U.U.U.U.J.).).~.P.Q.#X#X<X+X+X9XtXaXaXaX",
"u.u.u.u.m.m.m.m.u.u.u.u.u.u.8.9.7.7.7.1.<.<.;.;.;.F f C X.c g %.e...%.f.f.#.3.~.~.U.g.D._.I.D.;X).).D.j.Q.Q.Q.<X@X<X>X+X9XtXiXiX",
"u.u.u.u.m.m.u.m.u.u.u.u.u.u.8.9.7.7.7.1.<.>.;.;.,.P z l X.x s | %.{ ..e.%.e w S d.U.).U.U.U.K.I.).J.d.h.^.+X#X<X@X<X<X@X<XqXtXiX",
"u.u.u.u.u.u.u.u.u.u.u.u.u.8.8.8.7.7.1.1.<.;.;.;.2.T z z C d a c { | @.e.C # X ; D i.).U.I.U.T.g.U.S.1.d.;X>X X$X<X1X1X=X+X>XqXiX",
"u.u.u.u.u.u.u.u.u.u.u.u.8.8.8.7.7.1.1.<.>.;.;.;.2.T z e c d a g c | e.e.c # X : : j 7.J.U.I.T.K.U.g.,.d.;X:X X=X1X=X=X1X.XQ.2XwX",
"u.u.u.u.u.u.u.u.u.u.u.9.8.8.8.7.1.<.<.<.;.;.;.&.:.E z e x d s g g [ @...e @ @ , $ + S )._.D.K.Y.U.Z.2.h.;X#X X1X3X$X&X1X=X X.X2X",
"u.u.u.u.u.u.m.u.u.9.8.8.8.8.8.7.>.<.<.;.;.` / &.O.O.l e d d g c c { | x 3 X @ - > o J 6X4Xg.K.T.U.V.2.g.:X#X|.3X1X$X%X-X1X=X.XXX",
"u.m.u.u.u.u.m.m.8.8.8.8.8.8.8.7.>.<.>.;.` / W W E *.F e s x g [ ....[ s 2 # $ - > = <.0X6XK.T.W.D.i.O.h.:XOX.X3X-X-X%X%X$X1X=X X",
"m.m.u.u.u.m.m.m.9.9.8.8.8.8.7.7.<.>.;.;.&.&.W W E :.U e e z c C %...c 4 # # $ $ $ - V.zX4XI.E.h.D.,.P 3.,X>X.X1X&X1X-Xn..X1X1XoX",
"m.m.u.u.u.u.u.u.8.8.8.8.8.7.7.5.,.&.O.O.&.&.&.&.P 2.O.F w 3 l F +.V 7 # # * * & + I 4X4XE.6X4Xw.D.2.#.r.Q.+X X X=X=X=X=X=X=X=X=X",
"m.m.u.u.u.u.u.u.8.8.8.8.7.5.5.5.-.&.&.&.&.*.&.&.T T V U N ; w h 7 r i 6 & X @ & J q.E.E.H.4X6XE.D.2.#.h.Q.#XXXXX*X*X=X=X=X=X=X=X",
"u.u.u.u.u.u.u.u.8.8.8.7.5.5.4.>.&.&.&.&.,.,.&.O.,.P h &.O.9 8 0 r 0 , @ X X 6 u q.N.A.A.G.E.6X8XA.:.#.h.Q.Q. X&X*X*X=X=X=X=X=X=X",
"y.u.u.u.u.u.u.u.8.8.8.7.5.4.>.>.&.&.&.,.,.,.&.O.,.T N &.&.y w 6 u *     & y P -.,.5.0.A.R.H.E.8XD.:.+.h.Q.Q. X*X*X*X=X=X=X=X=X=X",
"y.y.u.u.u.u.u.u.8.8.7.4.4.4.=.=./ &.>.,.0.7.>.&.W &.J U A y h 9 * @ & r J E ~ &.I -.5.G.R.q.N.8XU.:.O.r.Q.Q. X*X*X*X=X=X=X=X=X=X",
"y.y.u.u.u.u.u.u.8.7.6.4.4.=.) / &.&.>.,.0.0.,.&.W 0.&.E A h A N h N ~ 7.-.P J E &.0.0.Z.R.=.,.8X;X:.P 3.Q.Q. X*X*X&X=X=X=X=X=X=X",
"y.y.y.y.y.y.8.8.8.6.4.4.=.) ) / =.=.>.5.7.0.5.>.>.0.=.5.E n R / 7.,.5.0./ Z J &.5.N.0.p.R.>./ 4X7X2.D :.Q.Q. X*X*X&X=X=X=X=X=X=X",
"y.y.y.y.y.y.8.8.7.6.4.4.=.) ) ~ =.=.>.,.7.0.7.,.,.=.R 0.=.j J ,.I N n I =./ ~ =.=.N.5.q.].q.~ E.0X2.l #.Q.#X XoX*X&X=X=X=X=X=X=X",
"8.8.y.y.y.8.8.6.8.7.4.) ) / / / >.~ =.>.=.0.p./ >.>.<./ >.j / >.=.Z J >.>.<.5./ G.5.p.V.R.p.R Z.0XU.T +.Q.Q.x.eX*X&XoXoX$X$X$X$X",
"8.8.y.y.y.8.8.8.8.6.4.) ) / / ) >./ =.>.=.7.p.=.5.>.=.~ >.h >.7.>.J R 7.7.5.5./ G.5.p.V.H.q.R Z.0X_.:.#.P.Q.x.2X*X&XoXoX$X$X$X$X",
"8.8.y.y.y.8.8.6.8.4.4.) ) / ) ) =./ >.4.) 7.p.=.7.>.) ~ 4.M 7.9.7.J R i.i.7.7.=.G.5.p.V.G.q.R V.6X4Xg.r.z.Q.v.*X*X&XoXoX$X$X$X$X",
"8.8.y.y.y.8.8.6.7.4.>.) ) ) ) ) ) / >.>./ 5.p.>.7.>.=.) 7.B 4.4.<.H R i.a.7.7.<.G.7.p.V.G.7.J a.4X6X;Xk.k.Q.XXXX*X&XoXoX$X$X$X$X",
"8.8.y.y.y.8.8.6.6.4.>.) ) ) ) ) ) / 4.4.^ 4.p.4.7.4.4.4.9.M ) ( ;.M J 9.p.5.7.7.C.7.i.N.C.7.J p._.6X7XQ.k.Q.*XXX*X&X&X&X$X$X$X$X",
"8.8.y.y.y.8.8.6.4.4.>.) ) ) ) =.) / 4.>.! 4.p.4.4.7.9.4.7.b / ( >.m Z 7.9.>.4.7.G.7.i.N.V.<.Z 0.U.;X7X,Xj.Q.*XXX*X&XoXoX$X$X$X$X",
"8.8.y.y.y.8.8.6.4.4.>.) ) ) =.=.) / 4._ ! ) u.4.4.8.8.4.) t / 6.9.Z Z 7.7./ >.7.G.7.i.N.V.>.Z 7.D.I.7X7XP.P.*XXX*X&XoXoX$X$X$X$X",
"8.8.y.y.y.8.8.6.4.4._ ) / ) ) ) / / 4.) I ) u.4.4.6.8./ ! r ) N.N.J J 7.7./ ) 7.G.7.i.a.V.>.Z 7.D.A.6X9XQ.P.>XXX*X&X@X@X$X$X$X$X",
"8.8.8.8.8.8.8.6.4._ ( / / ) 4.4.! / / I H K >.N.) 4.=.) ) G G 4.4.K n V.Z.>.N ,.0.<.s.0.;.O.P ;.d.U._.,X,XQ.x.<X@X*X@X*X$X$X$X$X",
"6.8.8.8.8.8.8.6.4._ ( ( ( ( ' 4.! / / K Z H =.N.=.5.4.=.! B K M.p.Z t 7.>.R n E 0.,.s.1.&.O.S O.2.D.E.;X7X,XQ.XX@X@X@X*X$X$X$X$X",
"6.8.8.8.8.8.8.6.4._ _ ( ( ( _ 4.! ) / J n M / M.! ) 4.=.G t m ) V.n 0 ,.P R Q =.0.1.Z.1.O.;.S E :.S.U.^.7X9X@Xv.@X@X@X@X@X@X@X@X",
"6.6.8.8.8.8.8.6.4._ ( ( ( ( _ 4.! ) ~ G j b ! p.K K / ) M 9 t m 5.t y p.J &.i.Z.0.0.S.<.O.1.T E E A.I.K.,X9X<X X@XoXoXoX@X@X@X@X",
"6.6.6.8.8.6.6.6.4._ _ ( ( ( _ 4.! / ! Z u b I 9./ B H I b r m M J 9 n N.N J >.s.1.0.S.,.;.s.:.;.A d.g.h.Y.,X>X@X@XoXoXoX@X@X@X@X",
"4.6.6.6.6.6.6.6.4.' _ ( ( ( _ 4.! ! I B b m I 4.=.u u b > r I ! u r N q.j y h W ,.i.H.:.;.S.i.:.N *.2.3.j.^.#X@X@XoXoXoXOXOX@X@X",
"4.6.6.6.6.6.6.6.4.' ( ( ( ( _ 4.^ ! J B m Z I =./ t u n , 9 ! / 9 u B q.A n j =.,.d.H.;.;.D.i.O.D O.*.2.Y.#XQ.XX.X.XoXoXoXoXOXOX",
"4.4.6.6.6.6.6.4.4._ ( ( ( ( _ 4.^ I H B M H ! ) ) b K ~ r r ! ! > n Z a.,.=.Q G.,.s.J.&.;.D.2.T Q O.O.h.,X,X#XXX.X.XoXoXoXoXOXOX",
"_ ' 4.6.6.4.4.4._ _ _ _ ( ^ ( _ / J Z G M b G =.) I J =.5.G M =.I 5.M 0.7.0.7.S.,.s.J.E T S.2.E P *.h.K.^.:X+Xv.XXXX.X.X.X.XOXOX",
"_ ' 4.6.6.4.4.4._ _ _ ( ! ! ^ / K B M G G M J ) 7./ I =.5.H B 4./ 5.M >.>.7.0.G.,.s.J.W T g.2.O.O.,.g.Y.;X#X#X XXXXX.X.X.X.XOXOX",
"_ ' 4.6.6.4.4.4.4.4._ ^ Y Y Y ^ L M m G K G H ! q.>.! ) >.G M 4.=.7.M R =.5.p.G.7.Z.J.O.T g.i.;.2.2.g._.:XQ.v.XXXXXX.X.X.X.XOXOX",
"_ ' 4.6.6.6.4.4.4.4._ ^ Y Y ! ^ ^ G M G J G G H 7.>.~ ) ) B n / =.5.N J >.0.Z.Z.i.Z.U.&.T s.2.,.0.w.A.;X:Xz.x.@X X X X X.X.X.X.X",
"_ ' 4.6.6.6.4.4.4.4._ ( ! ! ^ ) ) K Z B G G G H =.>.) 4.4.Z n ! ~ >.Z Z 0.a.H.a.d.Z.U.;.T d.1.2.0.w.A._.^.z.x.@X X X XXX.X.X.X.X",
"_ ' 4.6.6.6.4.4.' 4.' _ ( ^ ^ ( / R H Z G H K I ) 4.4.9.5.K B ~ E 5.P B N.Z.E.0.d.Z.J.&.Q 2.1.0.2.h.I.Y.L.z.Q.XX Xb. X X X X.X.X",
"_ ' 4.6.6.6.4.4._ ' 4._ ( ! ] ! / / ! K G G J K ~ 4.4.4.4.K H =.=.q.R M V.Z.].,.a.Z.J.O.P <.:.0.0.I._.I.j.P.#Xv. Xb.b.b. X X.X.X",
"_ ' 4.6.6.6.4.4._ ' 4.' ( Y L L ) 4.4.~ J Z B B ! =.) ) ) H H 4.7.N.~ n V.Z.].>.a.Z.H.W S :.;.i.d._.4XI.k.Q.+Xx. Xb.b.b. X X.X.X"
};
