/* XPM */
static char *_465bbe83e244c44d7a7f8f4e1deda26LEgm0nLfmY8qBsrX[] = {
/* columns rows colors chars-per-pixel */
"64 64 243 2 ",
"   c #7C290C",
".  c #6B2A1E",
"X  c #69281B",
"o  c #762D17",
"O  c #7C2C16",
"+  c #752D1C",
"@  c #7B2C1C",
"#  c #762716",
"$  c #7E3115",
"%  c #74301C",
"&  c #7D321D",
"*  c #6D2E23",
"=  c #662D25",
"-  c #742E21",
";  c #7A2E20",
":  c #6D3025",
">  c #6D342C",
",  c #743124",
"<  c #7C3324",
"1  c #7E3926",
"2  c #73352A",
"3  c #7B362A",
"4  c #7C392D",
"5  c #6B3631",
"6  c #7B3B31",
"7  c #87290E",
"8  c #8B2C0E",
"9  c #902F0E",
"0  c #842B14",
"q  c #8B2C13",
"w  c #842E1A",
"e  c #892E1B",
"r  c #8B3215",
"t  c #84321D",
"y  c #8B341C",
"u  c #8E391B",
"i  c #853217",
"p  c #923213",
"a  c #903619",
"s  c #93381A",
"d  c #80300F",
"f  c #823424",
"g  c #8D3623",
"h  c #823926",
"j  c #8C3924",
"k  c #833729",
"l  c #833A2B",
"z  c #8B3B2B",
"x  c #893729",
"c  c #933924",
"v  c #9B3B24",
"b  c #943D2B",
"n  c #9B3C29",
"m  c #993422",
"M  c #853D31",
"N  c #8C3F30",
"B  c #903E30",
"V  c #A13E27",
"C  c #A23E29",
"Z  c #AE3C21",
"A  c #B2401E",
"S  c #8C422E",
"D  c #964027",
"F  c #94442D",
"G  c #9C432E",
"H  c #9C482E",
"J  c #8B4132",
"K  c #8D493A",
"L  c #944432",
"P  c #9D4532",
"I  c #944934",
"U  c #9B4934",
"Y  c #9D4A39",
"T  c #99483A",
"R  c #A4432C",
"E  c #A9442C",
"W  c #AD4A2D",
"Q  c #A74226",
"!  c #B44625",
"~  c #B54729",
"^  c #B4492C",
"/  c #BC4B2C",
"(  c #B84827",
")  c #BD512C",
"_  c #B1522C",
"`  c #A34632",
"'  c #AC4731",
"]  c #A44835",
"[  c #AC4C34",
"{  c #A24C3A",
"}  c #AD4E39",
"|  c #A34738",
" . c #B34B34",
".. c #BC4E36",
"X. c #BC4F39",
"o. c #B34F3A",
"O. c #A65136",
"+. c #AC5133",
"@. c #A4543B",
"#. c #AB523C",
"$. c #AD5B3D",
"%. c #B45335",
"&. c #BD5136",
"*. c #B4543B",
"=. c #BC523B",
"-. c #B25B3D",
";. c #BB593E",
":. c #AF512B",
">. c #CE521F",
",. c #C94A26",
"<. c #C64B2C",
"1. c #CA4C2D",
"2. c #C74827",
"3. c #C5562E",
"4. c #CD532C",
"5. c #CF5A2F",
"6. c #D2552E",
"7. c #D4582B",
"8. c #C54E33",
"9. c #CA4D31",
"0. c #C45235",
"q. c #CB5234",
"w. c #CD5C36",
"e. c #C3533A",
"r. c #C9553A",
"t. c #C55B3C",
"y. c #CD5C3B",
"u. c #C65936",
"i. c #D35532",
"p. c #D45B33",
"a. c #DA5D33",
"s. c #D25B3C",
"d. c #DA5D3B",
"f. c #D05738",
"g. c #CB613C",
"h. c #C1603F",
"j. c #D4623C",
"k. c #DB633C",
"l. c #DC693E",
"z. c #D86137",
"x. c #E66C35",
"c. c #E96E36",
"v. c #E2633B",
"b. c #E46A3C",
"n. c #EB6E3C",
"m. c #E36734",
"M. c #ED733D",
"N. c #E67139",
"B. c #F1753D",
"V. c #F2793E",
"C. c #9A5041",
"Z. c #AB5441",
"A. c #AB5C45",
"S. c #A25445",
"D. c #B35B42",
"F. c #BA5942",
"G. c #B75846",
"H. c #BD6A4D",
"J. c #B76247",
"K. c #B76B53",
"L. c #C65C42",
"P. c #D15D41",
"I. c #C36344",
"U. c #CC6344",
"Y. c #C46846",
"T. c #C7694C",
"R. c #CA6B4D",
"E. c #C36649",
"W. c #D46441",
"Q. c #DC6542",
"!. c #DB6B43",
"~. c #DC6D4B",
"^. c #D56949",
"/. c #DC734D",
"(. c #D6724C",
"). c #C36C52",
"_. c #CA6B51",
"`. c #CB7355",
"'. c #D37352",
"]. c #D97352",
"[. c #D97B58",
"{. c #D26E56",
"}. c #E36C44",
"|. c #EA6C44",
" X c #E26E4C",
".X c #E56542",
"XX c #E37245",
"oX c #EC7442",
"OX c #E4754A",
"+X c #EA764A",
"@X c #E57A4C",
"#X c #EB7C4C",
"$X c #EB7946",
"%X c #F27642",
"&X c #F57D43",
"*X c #F97E44",
"=X c #F37D4A",
"-X c #FA7E49",
";X c #F17448",
":X c #E47C52",
">X c #E87F51",
",X c #E27855",
"<X c #F57B51",
"1X c #DA7F60",
"2X c #EF824C",
"3X c #F68144",
"4X c #F98044",
"5X c #F5834B",
"6X c #FB834B",
"7X c #FD894E",
"8X c #E68255",
"9X c #EC8354",
"0X c #E5845B",
"qX c #EE895D",
"wX c #EE845A",
"eX c #F38554",
"rX c #FA8653",
"tX c #F58953",
"yX c #FC8B54",
"uX c #F18759",
"iX c #FB8758",
"pX c #F48B5B",
"aX c #FC895A",
"sX c #FF9156",
"dX c #FF925D",
"fX c #FF955D",
"gX c #FF935C",
"hX c #FA945D",
"jX c #DD8A66",
"kX c #DF906F",
"lX c #E28E6D",
"zX c #EE8A62",
"xX c #F48D63",
"cX c #F88C62",
"vX c #E2916E",
"bX c #E8926F",
"nX c #FE9562",
"mX c #FF9964",
"MX c #F6966C",
"NX c #F5986F",
"BX c #FE9C6C",
"VX c #FA9566",
"CX c #F79872",
/* pixels */
"& o o o o o o o o o o % , 2 > : + @ @ @ o o o o @ @ o o o o o + > 5 5 > > 2 - - 2 > > > > > 5 > , + o @ o o O O o o @ @ o o o o ",
"-.-.-.-.$.$.$.-.$.H.`.$.A.+ X K J.$.$.D.-.-.-.$.$.-.-.-.$.$.D.A.: = , , < f U Y l < 3 , , 4 : X l A.$.$.$.$.$.$.$.$.$.$.$.$.$.J.",
"#X#X#X9XqXqXpX9X@XpXVXqXqX%.O @.0XpXuX#X#X#X9XpXqXqX>X@X9XpXwX'.3 , U ;.o.Q e.e.=. .R ' #.j , l Y.xXqXqXqXqXpXwX>XqXqXqXqXqX9X/.",
"4X4X&X7XfXfXfX6X*X&X5XfXdX>Xj O.pXfXnX5X&X3X7XfXfXnX6X&XyXfXaX/.1 3 ;. XQ.q.9.<.Q.j.8.r.~.' @ @.qXfXfXfXfXfXfXyX5XdXdXdXnXmXdXoX",
"4X*X4X&X3X3X3X3X4X4X3X&X=XOXy H.mX5XfX5X3X4X&X&X5XfX6X&X5X=XtXMX1 , ' 8.q.}.1.1.1.<.9.8.8.].j O.@X3X&X3X&X3X3X&X3X3X3X&XyXnXnXmX",
"4X*X&X&X4X4X4X4X4X4X&X4XsX@Xy D.pX5XfX5X3X4X4X3X5XfX6X&XyXsX5X8X& < ' 8.i..X1.1.9.9.9.9.8.Q # H.nX&X4X4X4X4X*X4X4X3X4X&XyXsXeXmX",
"4X4X4X4X4X4X4X4X4X4X&X6XnX@Xu +.2X4X6X5X4X4X4X3X4X6X4X3X6X6X4X@X& < ' 8.i.|.1.1.9.9.9.8.8.s # D.eX&X4X4X4X4X4X4X4X4X4X3X6XyXsXtX",
"4X4X4X4X4X4X4X4X4X4X4X4XyX@Xa +.#XB.&XV.M.&X4X4X4X3X4X4X3X&X4X#Xt < ' 0.q.d.1.1.9.9.9.8.0.' O O.#X4X4X3X4X4X4X&XV.4X4X3X&X6XyX5X",
"4X*X4X4X4X4X4X4X4X&X&X&X*XOXa -.eXc.4XN.c.V.4X4X4X4X&X4X4X4X4X#X& 3 ' 0.8.<.9.9.9.9.9.8.0.*.t #.#X*X4X4X4X4X4XV.c.3X4X4X3X3X3X4X",
"4X*X4X4X&X4X4X&X4XV.x.c.*X+Xa *.iX*X&X-X-X-X*X&X&X&X=X&X&X4X4X>X& 3 ' 0.8.8.8.8.8.8.9.8...v # #.#X*X*X4X4X4X4XV.c.3X4X4X4X&X*X=X",
"4X*X4X4X4X4X4X*X4X&X&X*X*X+Xa -.aX%X7.-X6X6X6X6XrXrX+X5.b.=Xn.~.t , [ e.&.e.0.0.e.e.0.e.*.b # #.OXM.4X&X4X4X4X4X&X4X4X4XB.n.n.n.",
"6X6X7X&XoXM.M.M.=X6X6X6XoXW.y P W.a.k.a.a.p.a.p.p.( ! / 4.k.}.u.& 4 b R V V C C V V C C G z + U ^.|.oX6XoXM.oXM.M.M.M.-X%Xb.v.6.",
"|.}.|.b.z.z.z.z.}.XX|.}.W.E @ L e.q.Q.<.<.<.1.<.<.Z Z 8.q.q.Q.&.< 3 l x x x x x x x x x x M 2 l *.W.k.|.k.z.k.z.z.z.z.}.}.k.d.1.",
"^ ^ W ^ ^ ~ ~ ( ! ! ! ~ W 0 # F  .~ ~ ^  . . . . . . . . .^ ^ [ , . 3 l l l l l 4 4 l l l l , # y  .' W  . .^ ^ ~ ( ~ ~ ~ ~ ~ / ",
"< + - + O 0 0 7 7 7 7 7 0 0 O O 0 7 0 0 @ @ O 0 0 O O O O O O O % % % o O O % - : , - @ O O O O 0 0 @ + - + @ O 0 7 7 7 7 7 7 7 ",
"l 4 2 * F )._._._.R.R.R.R.R.T.R.R.T.R.).K + I ).).lXlXvXlXvXlXvXkXkXvXvXjXH.K.1 < < G ).).R._.R._.J.< * : 2 < I ).T.R.R.R.R.R.T.",
"E.H - J U. XP.P.P.y.s.s.s. XOXk.y.y.f.].T # +.0X8XBXnXpXpXpXpXpXBXVXpXhXtX8XbXu W I.W.OXy.y.s.s.P.L.] k + S.*.&.OXy.s.s.y.s.j.OX",
"^.E @ U ,Xa.,.,.1.,.,.,.,..X|.a.2.1.p.W.P # _ pX2XfX5X&X&X&X&X5XfX5X&X&X&X5XMXa %.~.k.d.,.,.1.,.,.8.=.b # A.P.i.}.2.<.,.1.,.1.d.",
"e.C @ U ~.2.1.9.9.9.9.1.1.k..Xi.<.i..X0.F @ _ qX2XfX6X3X4X3X4X4XsX6X3X4X4X5X0Xr v X.8.1.1.1.9.1.1.8...c @ U 0.i.Q.1.1.9.9.9.9.,.",
"t.C @ U ~.1.1.9.9.9.9.9.1.,.1.1.1.9.1.0.L # :.pX5XfX6X&X4X4X4X3X3X3X3X4X4X5X0Xs e ' r.9.9.9.9.9.1.8.X.c @ Y t.1.1.1.9.9.9.9.9.9.",
"t.C @ U ~.,.1.9.9.9.9.9.9.1.1.1.9.9.9.e.L # _ eXN.6XM.n.V.4X3X3X3X3X4X4X4X5X0Xs e ` 0.9.9.9.9.9.9.8...c @ P 0.9.9.9.9.9.9.9.9.9.",
"e.C @ U ~.,.9.9.9.9.9.9.9.9.9.9.9.9.9.e.L # W 9X$X*Xn.m.B.4X4X3X4X4X4X4X4X5XqXa e ] 0.9.9.9.9.9.9.8...c @ Y t.9.9.9.9.9.9.9.9.9.",
"t.C @ L ^.,.9.9.9.9.9.9.9.9.9.9.9.9.9.e.L @ Q ~.=X-X%XM.&X4X&X4X4X4X&X%X&X#X'.u w ] e.9.9.9.9.9.9.0.=.c - J X.q.9.9.9.9.9.9.1.1.",
"*.b , l =.8.8.8.8.8.8.8.8.8.8.8.8.8.0.o.L @ m u.b.=X&X-X=X%X4X*X*X*XM.m.v.k.&.i f P X.8.8.8.8.8.8.e.} z , , R ..8.8.8.8.8.8.8.8.",
"b l 3 , G =.=.&.=.&.=.&.X.&.X.&.X.=.*.c M ; v 0.4.<X4.|.k.p.6X-X-Xn.|.a.,.q.=.e f x n =.=.=.=.&.=.o.g l , 4 x n =.=.=.X.=.=.=.=.",
"J 3 : 3 N b n n n n n n n n n n n n b z 3 + b L.e.y.0.L.^ Q g.w.w.w.y.r.e.e.G.f 3 N z b n n v v n b l 3 * 6 M z b n n n n n n n ",
"3 . X * - + + , 3 , - ; @ @ ; ; ; + - , . . @ j j z z j & O j y j y g g j x J 2 , , , + @ @ @ @ @ + - . = : , , 3 , - + + + ; @ ",
"I F F F F F I 3 . 3 L F F F F F F F F F F I F F S + X l F D D D D U H F F z * . l L F F F F F F U U F F F F I z . , S F F F F F ",
"@X@X@X@X@X:X[.j O $.0X:X:X@XOXOXOXOXOXOXOXOX@X8X`.$ # H.:XOXOXOXOXBXpXOX8X'.& $ Y.:XOXOXOXXXOXOX9XpXOXOXOXOX:Xh.# F (.@XOX@XOX@X",
"&XsX7X&X*X=X(.r %.zXmXdXfX5X&X*X*X*X*X*X*X&XtXBXlX$ t 1XaX&X*X&X&XsXtXiXmXzXi H.cXyX&X*X*X*X*X&XyXsX&X*X*X=X=X3.r `.=X*X*X*X*X*X",
"3X4X4X*X4X=X].p ) cXnX5X5XsXfXyX&X4X*X&XsXtXtXBXvX$ i '.tX*X4X3X5XsXnXyXyXVXq E.eX6X4X*X*X*X4X&XyXsX&X4X4X5X=X3.8 '.=X4X4X4X4X4X",
"5XyX6X*X4X=X].p ) eXrX5X5XyXyX6X3X4X4X3X7X5XyXBXvX$ i R.5X3X4X3X3X6XyXtX5XOX8 I.#XV.M.4X4X4X4X&XyXfX&X4X4X3X=X3.9 (.=X*X4X3X4X4X",
"%XyX6X&X4X5X].p ) #X5X3X%XoX&X&X4X*X4X4X3X3X6XnXjX$ i R.5X*X4X&X3X3X&X&XoXj.8 E.5XB.c.&X4X4X4X3X6X7X&X4X3X3X=X3.9 (.=X*X4X4X4X4X",
"c.%X4X4X&X#X].p ) =X5X&Xc.c.&X4X*X*X4X4X4X4X3X2X[.  i R.5X*X4X4X4X4X4XV.n.l.8 E.5XV.c.M.*X4X4X4X3X3X4X4X4X&X=X3.9 (.=X*X4X&X4X4X",
"c.%X4X4X&Xb.].p / #X&X&X4X4X4X&X4X4X4X4X4X4X4X5X[.d r R.5X&X4X4X3X3X&X6X=Xj.8 I.=X4X*X*X*X*X4X4X6X4X4X4X&X6X=X3.8 ;.l.&X4X4X4X4X",
"&X*X6X&Xn.}.L.q 0.<X6X&X4X4X6X6X6X&X&X4X4XB.B.iX[.0 y '.iX&X&X&X&X&X4X%Xn.!.q E.=X*X4X6X*X*X4XM.n.M.n.*X6XoXoXu.q =.}.n.&X6X&X&X",
"6X6X&XM.b.w.=.q ~ j.b.6X6X&Xv.a.n.7X6X%X%Xn.M.+XJ.O O -.XX&X6X6X6X6X&XoXb.u.q *.#XrX%Xm.6X6X6X*XB.n.&X%X%XoX}./ q *.s.6.b.=X6X6X",
"XXXXl.k.j.&.G.e R &.w.OXXX!.0./ w.OXXXk.k.k.k.U.#.@ # U y.!.XXXXXXXXl.k.W. .0 { ^.OXk.3.XXXXXXOX}.Q.OXk.j.W.U.Q e G.=.8.y.!.XXXX",
"+.[ [ } } Z.S.< L Z.} [ [ } #.*.} [ [ [ } } } #.C.- * K Z.[ [ [ [ [ [ } #.{ ; C.#.[ } } [ [ [ [ [ [ [ [ [ [ #.I ; S.#.o.o.[ [ [ ",
"e 0 0 0 0 0 O O 0 0 0 0 0 O @ @ 0 0 0 0 0 0 0 0 O @ @ @ 0 0 0 0 @ @ @ @ @ @ + ; @ 0 0 O @ @ ; @ 0 0 0 0 0 0 e 0 O O 0 0 q 0 0 w ",
"g.y.y.g.g.g.g.g.g.g.g.g.I.O + X c U.t.g.g.w.g.g.g.g.g.g.g.g.y.' < * < k e t t t t i t t f - , X c U.g.g.g.g.g.g.g.g.g.g.g.U.*.  ",
"iXiXiXiXiXiXiXiX-X%X-XaXzXD.3 l Y.cXuXiXiXiXiXiXiXiXiXiXiXiXeXI.3 2 f P F.=.;.;.;.;.;.-.D.k - J T.cXiXiXiXiXiXiXiXyXiXiXiXcX,X+.",
"sXsXdXdXdXdXsXdX7X&XrXnXmX0Xj $.MXnXBXBXfXsXdXdXnXmXdXdXsXdXdX[.< 4 b &. X XQ.Q.Q.Q.}.OX^.%.O #.qXdXdXdXdXdXdXdXsXsXdXsXsXmXnX/.",
"5X&X&X&X5X5X5X&X&X4X3X5XdX:Xy H.mX2XmXnX5X&X5X5X2XfX5X&X5X5X5XMXh < [ q.4.b.2.2.,.2.6.k.<.^.g [ #X&X3X&X5X5X&X&X3X3X5X5X2XyXaXN.",
"4X3X3X3X3X3X3X3X3X3X3X6XnX:Xy $.tX5XfX5X3X3X3X3X5XfX6X&XyXsX5X>Xf < [ 8.i.}.1.1.1.9.1.9.0.v # @.@X4X3X3X3X3X3X3X3X3X3X&XyXsXeXnX",
"4X4X4X4X4X4X4X4X3X3X3X6XfX>Xu -.tX6XfX5X6X4X4X3X3X6X3X3X5X5X4X>X& <  .8.i.|.9.9.9.9.9.8...m # H.nX&X4X&X4X4X4X4X4X4X4X3X3XyXfXnX",
"4X4X4X4X4X4X4X4X4X4X4X4XyX@Xu -.eXM.yXoXM.&X4X4X3X3X3X4X3X3X4X>X& <  .8.q.s.9.9.9.9.9.9.8. .O D.pX&X&X4X4X4X4X&XB.*X4X4X3X6XyXtX",
"&X&X4X4X4X4X4X4X4X&XV.&X*XOXu -.eXM.-Xc.m.V.4X4X4X4X4X4X4X4X4X>Xt <  .q.9.1.9.9.9.9.9.9.8.X.w O.#X4X&X4X4X4X4XV.c.*X4X4X4X4X&X&X",
"c.&X4X*X*X4X*X*X4XV.x.n.*XOXu $.tX&X&XM.c.&X4X*X4X4X*X&X&X&X-X>Xt <  .q.8.9.9.9.9.9.9.8...v # #.#X*X*X4X*X*X4XV.c.4X4X4X*X*X&X&X",
"n.&X*X&X*X*X*X*X*X-X%Xn.-XOXu $.pXM.>.&X-X-X-X6X6X-XoX6.x.-Xn.~.& < [ e.8.8.8.8.8.8.8.e.=.b # Z.OXn.6X*Xc.V.4X*X*X4X*X4XB.x.n.n.",
"-X6X6X6X-XM.B.n.&X6X6X-XoX:Xc #.OXa.%X6Xa.;X+X6.p.i.A ( 4.a.}.0.; 4 b ' e.0.0.0.0.e. .v b z + U W.n.%X6X-X%XM.M.M.M.-X6X%Xb.v.6.",
"!.!.!.!.!.j.j.s.k.!.!.!.g. .t Y U.q.}.!.q.W.e.! e.0.E =.e.r.W.*., 2 l F ` E E E E ` G x z M , l &.j.j.!.!.j.j.j.j.j.!.!.j.j.y.0.",
"` G P G P P P P P G G G I # . M Y ` G G ` ` z k { { { Y P P P I * = 2 3 , , , < , < 3 4 4 4 : , z P P G G H H H P P P P P P P ` ",
"g e e e e t + - + @ e t t f f f e e e e e e f < + + w t t t t t 1 l h 1 h 1 h h < , , * - , < f t t e e e e e e e w @ - + + O e ",
" X~. X~.~.R.z , < #.(.!.~.~.~.~.~.!.~.~.~.~./.I.f < E.xXCXMXMXNXNXNXMXMXNXNXNXCX[.+.< - c R.~.~.~.~.~.~.~.~.~. X^.*.N - 3 x R ].",
"i.i.6.a.|.!.j @ 0 %.}.6.6.i.i.i.6.6.6.i.i.6.k.U.f @ g.nXBXmXnXtXtXtXtXtXtXtXeXnXmX:X@.t U.}.p.6.i.6.i.i.i.i.6.i.p.^.L , , { U.q.",
"9.<.i.d.p.y.*.e Q y.f.,.,.,.,.,.,.,.,.,.1.<.d.U.f @ g.tXyXsXdX5X&X&X3X3X5X5XyXyXyXuX-.i OX|.i.<.,.,.,.,.,.,.,.,.1.P.L - < { P.<.",
"q.1.d.d.<.0.[.p 0.!.<.9.9.9.9.9.9.9.9.9.9.<.s.t.k @ W.=X&X7XfX5X3X4X&XV.&X3XsX5X&X#X-.e }.v.i.9.9.9.1.1.9.9.9.9.1...b ; < P 8.9.",
"q.9.9.9.9.0.{.p &.Q.<.9.9.9.9.9.9.9.9.9.9.9.q. .k @ /.6X&X7XsX3X3X4XB.x.M.4X&X3X4X#X-.i ~.1.1.9.9.9.9.9.9.9.9.9.9.0.b ; < P 0.9.",
"q.9.9.9.9.8.F.q =.^.<.9.9.9.9.9.9.9.9.9.9.8.q. .k @ g.&X6X4X3X3X4X4X*X*X*X4X4X4X-X#X-.0 0.1.9.9.9.9.9.9.9.9.9.9.9.0.G.x ; P 0.9.",
"q.9.9.9.9.8.F.t c o.0.9.9.9.9.9.9.9.9.9.9.8.q. .k @ W.oXn.B.6X4X4X4X4X4X4X4X4XM.M.+XF.0 0.1.9.9.9.9.9.9.9.9.9.9.9.8.F.g ; P 0.9.",
"9.9.9.9.9.8.` f w ` 0.9.9.9.9.9.9.9.9.9.9.8.q. .k @ 0.}.|.n.%X%X%X%X%X%X%X%X%Xn.a.j.} w e.9.9.9.9.9.9.9.9.9.9.9.9.8.] f ; P 0.9.",
"q.9.9.9.9...z ; f ] 0.9.9.9.9.9.9.9.9.9.9.8.q. .k ; ^ k.v.v.v.k.k.k.v.v.v.k.v.v.6.q.` e  .8.8.9.9.9.9.9.9.9.9.9.9.e.b ; < ` 0.9.",
"q.9.9.9.9...N , f ] 0.9.9.9.9.9.9.9.9.9.9.8.q. .k @ ..9.,.1.1.1.1.,.1.1.1.1.1.1.1.e.| O m ..9.9.9.9.9.9.9.9.9.9.9.=.B , < ` 0.9."
};
